<?xml version="1.0"?>
<!-- <!DOCTYPE svg PUBLIC "-//W3C//DTD SVG 20010904//EN"
 "http://www.w3.org/TR/2001/REC-SVG-20010904/DTD/svg10.dtd"> -->
<svg version="1.0" xmlns="http://www.w3.org/2000/svg"
 width="640.000000pt" height="480.000000pt" viewBox="0 0 640 480"
 preserveAspectRatio="xMidYMid meet">

<g transform="translate(0.000000,480.000000) scale(0.100000,-0.100000)"
fill="#000000" stroke="none">
<path d="M2374 4714 c-7 -3 -10 -14 -7 -25 4 -14 2 -18 -10 -13 -13 5 -15 0
-10 -23 3 -15 7 -38 7 -50 1 -23 16 -21 16 2 0 8 9 23 20 33 l21 19 -28 -5
c-25 -5 -27 -4 -14 12 9 10 21 14 34 10 13 -4 17 -2 13 5 -4 6 -14 11 -23 11
-9 0 -13 6 -9 15 3 8 4 15 3 14 -1 0 -7 -3 -13 -5z"/>
<path d="M3974 4643 c-10 -16 -17 -38 -16 -51 1 -13 -2 -21 -7 -17 -5 3 -12 1
-15 -4 -3 -5 0 -11 8 -14 8 -3 17 1 20 9 3 8 13 14 23 14 17 1 17 1 0 14 -12
9 -14 16 -8 21 6 3 11 1 11 -5 0 -6 5 -8 11 -5 6 5 4 12 -8 21 -17 12 -17 13
0 14 9 0 17 7 17 15 0 23 -16 18 -36 -12z"/>
<path d="M3776 4610 c11 -42 23 -70 29 -70 4 0 3 5 0 10 -3 6 0 10 7 10 8 1 5
7 -7 16 -11 8 -18 16 -16 17 3 1 -1 11 -8 22 -11 19 -11 18 -5 -5z"/>
<path d="M2320 4580 c0 -9 39 -25 45 -18 2 2 -7 8 -21 15 -13 6 -24 7 -24 3z"/>
<path d="M3750 4576 c0 -3 9 -21 21 -40 21 -37 33 -44 44 -26 3 6 17 10 30 10
13 0 27 5 30 10 4 7 -2 9 -19 4 -18 -4 -26 -2 -26 7 0 8 -5 5 -14 -6 -13 -18
-14 -17 -30 13 -14 27 -36 44 -36 28z"/>
<path d="M2475 4542 c-19 -13 -18 -69 1 -80 16 -9 14 -13 -16 -40 -27 -26 -36
-29 -51 -19 -12 8 -19 25 -20 47 -1 24 -3 28 -6 12 -2 -12 -8 -20 -13 -17 -5
3 -11 1 -15 -5 -4 -7 -12 -7 -25 0 -16 8 -18 7 -14 -4 3 -8 0 -17 -6 -21 -6
-3 -9 -3 -8 2 2 4 -1 9 -6 11 -6 1 -11 -4 -12 -12 -1 -9 1 -14 4 -13 4 1 9 -2
12 -8 3 -6 -11 -10 -32 -11 -28 -1 -38 3 -41 17 -6 21 8 26 16 7 4 -8 6 -6 7
5 4 33 5 35 13 43 10 10 9 34 -2 34 -5 0 -23 -14 -41 -30 -25 -23 -30 -33 -21
-44 6 -7 8 -16 4 -19 -3 -4 -1 -7 7 -7 10 0 10 -3 0 -15 -12 -14 -7 -19 13
-16 5 1 6 -3 3 -8 -3 -4 6 -8 19 -8 14 0 25 3 25 8 0 5 9 9 20 9 11 0 20 4 20
10 0 5 7 7 15 4 10 -4 15 0 15 14 0 11 8 22 20 25 16 4 19 0 18 -18 -1 -13 -7
-23 -12 -22 -6 1 -10 -4 -11 -11 0 -7 -6 -16 -13 -21 -8 -5 -13 -12 -12 -17 1
-5 -4 -10 -12 -12 -9 -2 -8 0 2 7 13 9 13 11 -2 11 -9 0 -23 3 -32 6 -9 3 -16
1 -16 -5 0 -6 8 -11 18 -11 14 0 15 -2 2 -10 -12 -8 -9 -10 13 -10 15 0 27 -5
27 -11 0 -5 -4 -7 -10 -4 -6 4 -7 -1 -3 -11 4 -12 3 -15 -5 -10 -8 5 -10 1 -5
-10 5 -14 9 -11 21 12 22 43 77 104 111 125 39 24 95 100 80 109 -6 4 -9 15
-7 26 3 19 -19 29 -37 16z"/>
<path d="M3800 4489 c0 -3 5 -21 11 -39 10 -28 13 -30 22 -15 7 13 4 22 -12
38 -11 12 -21 19 -21 16z"/>
<path d="M1901 4457 c-6 -12 -16 -44 -20 -72 -5 -27 -12 -59 -16 -71 -5 -17 0
-24 28 -37 38 -19 61 -22 37 -7 -13 9 -13 11 -1 19 12 8 12 12 -2 26 -10 9
-17 28 -17 41 0 16 -4 23 -11 18 -13 -7 -2 37 11 46 13 9 21 48 12 54 -5 3
-14 -5 -21 -17z m4 -148 c12 -19 -5 -23 -22 -6 -16 16 -16 17 -1 17 9 0 20 -5
23 -11z"/>
<path d="M1590 4450 c0 -21 15 -27 25 -10 4 6 10 8 15 5 5 -3 11 -1 14 4 7 11
-13 9 -33 -3 -11 -7 -13 -5 -8 7 3 10 2 17 -3 17 -6 0 -10 -9 -10 -20z"/>
<path d="M1990 4445 c-9 -11 -10 -16 -2 -11 23 14 12 -8 -15 -30 l-28 -22 26
5 c20 4 27 0 32 -16 3 -12 1 -21 -4 -21 -5 0 -9 6 -9 13 0 7 -7 4 -15 -7 -8
-11 -15 -25 -15 -30 0 -6 5 -4 10 4 8 13 10 12 10 -2 0 -10 -4 -18 -10 -18 -5
0 -10 -5 -10 -11 0 -5 4 -8 9 -5 4 3 13 -7 20 -22 11 -25 10 -26 -4 -8 -15 20
-15 20 -16 0 -1 -10 0 -27 1 -38 1 -13 -2 -16 -12 -10 -11 6 -11 5 0 -8 9 -11
10 -18 2 -23 -6 -3 -8 -12 -4 -18 3 -7 -12 7 -35 31 -41 42 -52 60 -29 46 7
-4 8 -3 4 5 -11 17 -29 2 -23 -20 11 -40 -34 -4 -47 37 -4 12 -16 30 -27 40
-19 17 -20 17 -13 -1 6 -15 4 -17 -10 -12 -13 5 -20 0 -29 -23 -11 -28 -27
-41 -27 -21 0 5 -9 7 -20 4 -11 -3 -20 -9 -20 -13 0 -5 -7 -16 -16 -24 -12
-13 -5 -23 10 -13 2 1 13 -7 25 -17 12 -11 21 -15 21 -10 1 11 39 -57 40 -70
0 -5 -14 9 -31 30 -38 48 -44 53 -37 33 4 -9 -2 -20 -13 -28 -11 -6 -17 -16
-14 -21 4 -6 11 -8 16 -4 16 9 59 -5 56 -19 -1 -6 6 -12 15 -12 24 0 36 -15
42 -50 l6 -30 -25 30 c-13 17 -24 26 -25 21 0 -6 -7 -1 -16 10 -13 15 -15 16
-10 2 6 -20 -17 -15 -48 11 -11 9 -16 10 -12 4 5 -9 2 -11 -7 -7 -8 3 -14 13
-12 22 1 9 -3 20 -9 25 -7 5 -5 12 8 22 18 14 16 45 -3 45 -6 0 -8 7 -5 15 4
11 2 13 -9 9 -17 -6 -15 -40 2 -36 16 3 14 -3 -6 -19 -11 -10 -14 -10 -9 -1 4
7 2 12 -6 12 -7 0 -14 -13 -15 -30 -1 -18 2 -28 8 -25 5 4 7 11 4 16 -4 5 -1
9 4 9 6 0 11 -4 11 -9 0 -5 3 -17 6 -26 5 -13 1 -15 -21 -11 -22 4 -25 3 -15
-10 10 -11 9 -14 -9 -14 -24 0 -27 -12 -7 -29 10 -9 16 -8 26 4 7 8 17 15 23
15 6 0 3 -6 -8 -13 -14 -11 -15 -16 -5 -22 7 -4 16 -2 20 5 5 8 10 4 15 -12 4
-12 7 -26 6 -30 -1 -5 10 -8 24 -8 14 0 25 -5 25 -11 0 -5 4 -8 9 -4 6 3 15
-4 21 -15 13 -24 42 -28 33 -4 -5 14 -3 13 15 -2 23 -20 27 -25 15 -23 -21 3
-24 -2 -12 -18 13 -15 12 -15 -18 0 -18 10 -38 17 -45 16 -7 0 -2 -5 12 -11
21 -9 22 -12 7 -15 -14 -4 -16 -8 -6 -19 10 -12 9 -13 -5 -8 -9 3 -16 10 -16
14 0 4 -9 10 -20 13 -15 4 -20 0 -20 -13 0 -12 -7 -18 -19 -17 -15 1 -17 5
-10 13 8 9 4 11 -13 6 -22 -5 -22 -5 -5 12 18 19 21 27 10 25 -23 -4 -33 3
-33 21 0 13 -7 20 -20 20 -11 0 -20 -5 -20 -10 0 -6 -11 -8 -27 -4 -17 5 -30
2 -37 -8 -6 -8 -19 -17 -28 -21 -24 -9 -23 -24 2 -32 24 -8 54 -61 43 -78 -4
-7 -8 -19 -8 -27 0 -15 -5 -17 -57 -19 -16 0 -28 -6 -28 -11 0 -6 11 -8 25 -6
20 4 25 1 25 -15 0 -10 -6 -19 -12 -19 -9 0 -8 -4 2 -10 13 -8 12 -10 -2 -10
-10 0 -18 4 -18 9 0 5 -9 13 -21 16 -11 4 -18 9 -15 12 6 6 -18 33 -29 33 -4
0 -5 -7 -2 -15 4 -8 2 -17 -4 -21 -5 -3 -7 -15 -3 -27 6 -21 5 -21 -12 -7 -21
18 -58 36 -92 45 -16 5 -28 0 -42 -17 -11 -13 -19 -17 -20 -10 0 9 -10 12 -27
10 -21 -2 -32 -13 -46 -41 -10 -21 -22 -35 -27 -32 -12 7 -50 -25 -50 -42 0
-7 -5 -13 -11 -13 -22 0 36 76 114 149 60 57 82 91 59 91 -4 0 -41 -33 -81
-73 -40 -41 -79 -74 -87 -74 -10 0 -11 4 -2 14 8 11 7 12 -6 7 -19 -7 -34 22
-18 38 8 8 13 7 18 -5 3 -9 11 -17 18 -17 20 0 66 49 60 65 -5 11 -13 8 -37
-15 -18 -16 -34 -25 -35 -20 -2 6 7 19 20 30 21 18 22 19 3 20 -10 0 -34 -14
-51 -31 -28 -27 -31 -34 -19 -45 10 -11 11 -19 2 -38 -10 -21 -13 -22 -18 -9
-9 28 -21 -4 -14 -37 5 -23 3 -30 -8 -30 -9 0 -23 -3 -32 -7 -16 -6 -16 -4 0
21 23 35 16 40 -24 15 -55 -33 -26 -53 79 -52 32 0 39 -2 25 -7 -29 -11 -46
-34 -55 -75 -8 -34 2 -50 13 -20 5 11 17 13 54 9 42 -5 52 -3 77 19 17 14 34
23 39 20 4 -3 -1 -12 -13 -20 -22 -16 -19 -51 6 -66 9 -5 11 -18 7 -39 -4 -21
-3 -29 5 -24 13 8 24 -8 17 -26 -6 -16 -73 -38 -116 -38 -31 0 -32 0 -14 -20
12 -13 25 -18 41 -14 20 5 22 3 17 -18 -3 -12 -10 -29 -16 -35 -5 -7 -6 -13
-1 -13 5 0 1 -5 -8 -11 -10 -5 -15 -16 -12 -24 4 -9 0 -15 -9 -15 -12 0 -13 7
-7 35 8 34 5 41 -29 60 -10 6 -12 2 -6 -14 5 -18 2 -21 -19 -21 -30 0 -32 -9
-10 -53 22 -42 24 -44 33 -29 4 7 7 -2 7 -23 -1 -28 -3 -32 -12 -20 -6 8 -19
15 -28 15 -14 0 -15 -3 -5 -22 10 -19 10 -21 -2 -12 -12 9 -27 10 -70 5 -19
-2 -1 -63 26 -91 14 -14 25 -31 25 -37 0 -22 -21 -25 -35 -7 -12 16 -16 17
-24 5 -5 -7 -14 -10 -20 -6 -7 4 -18 1 -27 -5 -12 -11 -13 -6 -9 31 4 37 3 41
-7 24 -16 -27 -18 -107 -2 -94 6 5 14 6 17 2 4 -3 7 -1 7 5 0 7 5 12 11 12 6
0 9 -7 5 -15 -3 -9 0 -15 8 -15 15 0 17 -51 2 -61 -12 -9 -18 -81 -6 -74 6 4
11 16 11 28 1 17 2 18 6 4 2 -9 9 -15 14 -12 15 10 10 0 -11 -25 -11 -12 -25
-20 -32 -17 -7 2 -19 -2 -26 -9 -10 -11 -8 -15 8 -24 17 -9 19 -20 17 -74 -1
-50 -5 -62 -14 -54 -10 8 -13 5 -13 -11 0 -11 6 -20 13 -19 7 2 11 -5 9 -17
-2 -16 -1 -17 6 -5 8 14 23 74 40 170 6 30 13 44 22 42 10 -2 11 0 2 11 -13
16 -6 27 17 27 14 0 14 -2 1 -10 -12 -7 -11 -10 5 -16 11 -4 25 -9 30 -12 6
-3 7 -2 3 3 -4 4 -3 16 2 26 7 12 7 20 0 24 -5 3 -10 13 -10 21 0 12 2 12 14
2 7 -7 13 -23 11 -35 -2 -16 3 -23 15 -23 14 0 17 -5 12 -22 -5 -20 -3 -21 10
-11 8 7 18 10 21 7 4 -4 -5 -16 -19 -26 -20 -16 -22 -23 -13 -34 9 -11 8 -14
-4 -14 -8 0 -20 7 -27 15 -16 19 -40 19 -40 0 0 -9 6 -12 16 -8 14 5 15 3 6
-14 -13 -23 -4 -40 21 -40 11 0 16 6 12 17 -3 11 1 16 14 16 12 0 19 -7 18
-17 -1 -10 -5 -15 -9 -13 -4 3 -8 -2 -8 -11 0 -13 4 -14 22 -4 21 11 21 11 -3
-19 -13 -17 -33 -31 -44 -32 -17 0 -17 -2 -5 -10 8 -5 25 -10 37 -10 17 0 26
-12 43 -57 14 -39 18 -59 10 -67 -7 -7 -10 -6 -10 2 0 7 -11 12 -24 12 -25 0
-43 -30 -31 -50 10 -16 65 -12 71 5 4 8 11 15 16 15 10 0 8 -17 -8 -54 -6 -16
-4 -18 15 -13 18 4 20 3 11 -8 -9 -11 -6 -17 14 -30 14 -10 24 -21 21 -25 -3
-4 2 -13 11 -20 8 -7 24 -26 36 -43 l21 -29 -24 14 c-13 7 -27 17 -30 21 -3 4
-18 9 -32 11 -35 4 -35 4 -41 54 -8 68 -27 80 -62 41 l-18 -20 -8 22 c-7 17
-11 19 -22 10 -11 -9 -15 -9 -19 1 -4 10 -6 10 -6 1 -1 -17 -38 -17 -44 0 -2
6 0 21 6 31 7 15 6 18 -5 14 -11 -5 -14 3 -12 40 2 25 8 48 15 52 6 4 8 13 4
20 -6 9 -10 9 -16 -1 -8 -12 -10 -12 -18 0 -7 11 -10 9 -16 -8 -9 -30 -25 -26
-32 9 -3 17 -9 30 -14 30 -5 0 -9 26 -10 58 -1 52 -2 54 -12 30 -6 -16 -15
-28 -20 -28 -5 0 -7 6 -4 13 3 8 -5 12 -24 12 -19 0 -28 -4 -25 -12 3 -7 -6
-13 -22 -15 l-27 -4 30 -14 c40 -19 39 -18 28 -32 -12 -16 -13 -49 -1 -42 4 3
8 -2 8 -10 0 -9 5 -16 10 -16 7 0 7 6 0 19 -5 11 -10 28 -10 37 0 16 1 16 14
-1 8 -11 12 -24 8 -29 -3 -5 2 -7 11 -3 12 5 19 -1 23 -18 3 -14 11 -22 17
-18 7 4 8 -6 4 -31 -4 -25 -2 -34 5 -30 7 5 8 2 3 -6 -6 -10 -11 -10 -20 4
-11 15 -13 15 -19 1 -3 -9 -2 -13 4 -10 6 3 10 2 10 -3 0 -19 -14 -21 -37 -7
-13 9 -23 11 -23 6 0 -14 34 -31 59 -31 12 0 31 10 42 21 25 25 32 18 49 -52
11 -43 13 -46 46 -47 42 -2 57 -9 47 -25 -4 -7 -8 -29 -9 -49 -3 -76 -2 -73
-23 -54 -16 15 -19 15 -24 2 -6 -16 19 -36 46 -36 8 0 23 -12 33 -27 9 -15 19
-22 21 -16 3 7 10 10 17 7 7 -3 13 2 13 10 0 11 -5 13 -19 5 -22 -12 -26 -3
-31 63 -3 25 0 52 5 60 7 9 8 8 4 -6 -5 -14 -2 -17 9 -12 13 5 14 2 4 -15 -10
-19 -9 -20 11 -9 13 7 20 8 16 2 -3 -6 -2 -13 4 -17 6 -4 10 6 10 24 0 17 5
31 10 31 6 0 9 -6 8 -12 -2 -8 8 -13 25 -13 25 1 27 -1 12 -11 -10 -8 -14 -18
-9 -26 4 -7 4 -10 -1 -6 -4 4 -17 2 -28 -4 -21 -11 -21 -11 3 -21 35 -14 50
-16 50 -8 0 4 8 8 18 9 9 1 26 3 36 4 10 2 20 -3 22 -10 1 -7 0 -9 -2 -4 -6
11 -54 3 -54 -9 0 -5 -10 -9 -22 -9 -17 0 -19 -3 -10 -12 13 -13 78 -15 106
-3 12 5 17 5 13 -1 -3 -6 4 -11 15 -11 19 -2 19 -1 3 11 -10 7 -15 18 -11 24
4 7 2 12 -4 12 -6 0 -8 5 -5 10 4 6 10 8 15 5 16 -10 69 -98 64 -106 -3 -5 0
-9 6 -9 6 0 8 -5 5 -11 -4 -5 1 -19 10 -29 17 -18 17 -19 -4 -15 -11 2 -21 -1
-21 -6 0 -6 -4 -8 -10 -4 -6 4 -5 14 2 29 8 19 7 29 -8 50 -26 34 -38 33 -20
-3 15 -28 14 -69 -1 -80 -5 -3 -14 -18 -22 -33 -14 -28 -37 -28 -27 -1 5 11 1
14 -13 10 -13 -3 -18 0 -15 7 3 9 -4 11 -26 8 -33 -5 -42 13 -10 21 11 3 20
13 20 24 0 11 -3 14 -8 7 -11 -17 -57 -40 -47 -24 5 8 3 11 -6 8 -19 -6 -19
-29 -1 -50 12 -14 12 -18 2 -18 -7 0 -22 -8 -33 -17 -15 -15 -19 -15 -17 -3 1
8 2 24 0 35 l-1 20 -9 -20 c-7 -16 -9 -14 -7 12 1 24 4 29 13 22 9 -7 16 -4
24 11 9 16 18 20 35 16 17 -4 27 0 38 18 15 23 15 24 -6 30 -33 9 -36 8 -32
-14 2 -11 0 -18 -5 -15 -15 9 -51 -15 -44 -28 4 -7 1 -6 -7 2 -10 10 -11 15
-2 18 7 2 10 10 7 17 -2 6 10 20 28 29 29 15 30 17 8 14 -14 -3 -34 -8 -45
-12 -19 -7 -19 -7 -1 7 11 8 15 18 9 21 -5 3 -17 -2 -25 -13 -14 -15 -14 -21
-3 -37 12 -17 11 -26 -9 -66 -21 -40 -22 -49 -10 -64 12 -16 15 -16 24 -3 8
13 10 13 10 -2 0 -11 -7 -18 -17 -18 -10 0 -25 -5 -33 -11 -11 -8 -7 -9 18 -6
18 2 35 0 38 -5 10 -15 24 -8 24 13 0 16 4 19 20 14 13 -4 20 -2 20 7 0 10 2
10 9 -1 6 -10 21 -12 50 -8 42 5 75 -13 50 -29 -7 -4 -9 -3 -5 4 3 6 2 13 -3
16 -5 3 -8 -10 -7 -29 1 -30 -3 -37 -21 -41 -17 -5 -23 -14 -23 -33 0 -14 -7
-35 -15 -45 -8 -11 -15 -27 -15 -35 1 -11 5 -8 14 7 11 20 14 21 25 9 24 -30
57 -4 67 52 6 34 57 37 53 2 -3 -29 1 -39 17 -56 15 -15 21 -47 13 -70 -2 -5
1 -11 6 -12 6 -1 9 7 7 17 -2 11 2 20 7 20 6 0 11 -6 11 -13 0 -7 9 -18 20
-25 12 -7 18 -17 15 -21 -8 -14 21 -21 34 -8 8 8 11 8 11 -1 0 -6 10 -17 23
-23 22 -12 22 -12 -2 14 -13 14 -33 27 -45 29 -27 4 -29 41 -2 46 13 3 16 0
11 -9 -5 -8 -4 -10 4 -5 6 4 9 12 5 17 -3 6 3 13 15 16 12 3 21 12 21 19 0 8
9 14 20 14 17 0 19 3 11 19 -15 26 7 44 32 27 9 -7 17 -16 17 -20 0 -3 9 -15
20 -26 35 -35 -5 -77 -41 -44 -11 10 -19 13 -19 8 0 -5 9 -15 20 -21 10 -7 24
-30 30 -52 6 -25 17 -41 30 -44 22 -6 26 3 8 21 -9 9 -6 14 13 22 22 10 23 10
2 6 -26 -5 -31 11 -7 21 21 8 64 -13 64 -31 0 -8 8 -17 18 -20 9 -3 22 -18 29
-32 7 -15 10 -24 6 -21 -3 4 -14 2 -24 -3 -10 -6 -29 -11 -43 -12 -15 -1 -26
-8 -26 -15 0 -6 -5 -15 -11 -18 -6 -4 -9 -1 -7 7 2 7 -1 13 -7 13 -5 0 -9 -4
-7 -8 1 -5 -2 -6 -7 -3 -5 3 -8 21 -6 39 2 17 1 24 -1 14 -9 -31 -47 -15 -56
23 -2 8 -10 21 -18 28 -13 12 -13 13 3 8 9 -3 17 -1 17 4 0 14 -27 12 -36 -2
-4 -6 -2 -14 5 -16 9 -3 9 -7 0 -18 -9 -11 -8 -14 7 -14 17 0 17 -2 3 -15 -9
-9 -25 -17 -36 -18 -12 0 -26 -9 -32 -19 -14 -22 -3 -23 27 -2 12 8 22 11 22
5 0 -5 6 -11 13 -14 6 -2 3 -3 -8 -1 -20 3 -20 3 -1 -11 19 -14 18 -15 -5 -24
-13 -5 -18 -10 -11 -10 7 -1 11 -5 7 -11 -3 -5 -12 -7 -20 -3 -8 3 -15 0 -15
-6 0 -6 7 -11 16 -11 8 0 12 -4 9 -10 -3 -5 1 -10 9 -10 8 0 18 4 21 10 7 11
45 -9 45 -24 0 -5 -3 -7 -6 -3 -10 10 -30 -15 -39 -48 -6 -22 -9 -25 -12 -12
-6 23 -22 22 -20 -2 1 -12 10 -21 24 -24 12 -2 20 0 17 4 -3 5 1 9 9 9 19 0
39 -24 29 -35 -8 -9 15 -3 73 19 36 13 41 13 53 -2 10 -14 12 -12 12 14 0 24
4 30 25 32 14 1 25 -3 25 -9 0 -5 4 -8 8 -5 4 2 14 1 22 -5 10 -5 10 -9 3 -9
-6 0 -10 -9 -8 -20 2 -11 -1 -23 -7 -26 -7 -5 -8 -2 -3 7 7 12 6 12 -7 1 -17
-14 -30 -62 -17 -62 5 0 9 5 9 10 0 6 10 10 21 10 21 0 22 -7 8 -45 -2 -5 0
-11 5 -12 5 -1 12 -7 16 -13 5 -8 9 -7 13 5 5 10 3 14 -4 9 -7 -4 -10 -1 -7 7
7 20 34 17 30 -3 -1 -9 2 -19 8 -23 6 -4 10 -3 9 2 -4 21 2 33 16 33 8 0 15
-4 15 -10 0 -5 7 -10 16 -10 10 0 14 6 10 15 -3 9 0 15 9 15 8 0 15 5 15 11 0
5 -5 7 -12 3 -7 -4 -8 -3 -4 5 10 15 26 4 26 -18 0 -18 49 -41 87 -41 11 0 28
-9 38 -20 20 -22 45 -27 45 -9 0 7 10 5 25 -5 14 -9 25 -13 25 -9 0 5 5 1 10
-7 8 -12 10 -10 10 9 0 19 3 21 14 12 12 -10 18 -7 31 16 9 15 14 20 11 11 -3
-11 -1 -15 8 -12 17 6 29 -23 14 -32 -7 -4 -14 -2 -16 4 -4 14 -22 16 -22 2 0
-5 11 -12 25 -16 24 -6 24 -7 9 -35 -18 -35 -23 -37 -17 -5 5 22 -12 45 -23
33 -6 -5 -12 -32 -13 -54 -1 -13 -43 -18 -54 -7 -3 3 -1 15 6 25 9 15 8 22
-10 39 -28 25 -30 25 -29 -2 1 -15 -4 -22 -14 -21 -30 5 -20 -50 14 -77 16
-14 27 -19 23 -12 -6 8 -1 12 16 12 14 0 28 -7 31 -16 5 -12 2 -15 -9 -10 -10
3 -13 2 -10 -5 4 -6 14 -8 23 -4 8 3 19 0 23 -6 9 -16 -11 -61 -25 -56 -12 5
-13 -57 -1 -86 4 -10 3 -17 -4 -17 -6 0 -13 11 -17 24 -3 15 -11 23 -19 20 -7
-3 -15 2 -18 10 -7 18 -33 21 -43 5 -11 -18 -15 -99 -5 -99 5 0 12 6 15 13 3
6 4 -7 1 -30 -3 -24 -1 -43 3 -43 5 0 7 -13 4 -29 -5 -33 13 -51 23 -22 5 16
11 18 40 11 19 -4 33 -4 30 0 -3 4 9 13 26 21 27 11 33 10 44 -4 10 -14 13
-14 25 4 19 25 34 25 20 -1 -9 -16 -8 -19 6 -13 12 5 15 3 9 -6 -6 -10 -3 -11
14 -2 24 13 29 26 6 17 -9 -3 -15 0 -15 9 0 8 5 15 10 15 6 0 10 5 10 11 0 6
-7 9 -15 5 -8 -3 -15 -1 -15 5 0 16 31 23 51 11 27 -17 42 -15 35 5 -6 15 -5
15 13 -1 12 -11 27 -16 36 -12 22 8 13 31 -11 31 -28 0 -44 13 -37 31 3 9 0
20 -7 24 -9 6 -9 9 0 15 7 4 13 -1 17 -14 4 -15 13 -21 34 -21 22 0 32 -6 39
-25 5 -14 21 -30 35 -37 26 -12 36 -32 11 -22 -7 3 -16 -3 -20 -13 -4 -9 -4
-14 0 -10 4 4 14 -3 22 -15 12 -16 12 -23 4 -26 -7 -2 -12 -9 -12 -15 0 -8 4
-7 12 1 7 7 20 12 31 12 10 0 16 4 13 8 -2 4 0 14 6 22 8 12 9 12 4 -2 -8 -27
13 -22 25 5 11 25 62 60 72 50 4 -3 10 3 14 13 11 30 25 34 45 11 11 -13 17
-16 16 -8 -4 19 72 43 90 28 6 -5 12 -16 12 -25 0 -8 3 -12 7 -8 5 4 8 13 8
19 0 7 10 13 23 15 16 3 22 8 18 18 -3 9 -1 12 4 9 13 -8 13 -35 -1 -35 -5 0
-7 -5 -4 -10 5 -8 12 -7 22 2 13 10 14 7 9 -24 -6 -37 -1 -40 39 -26 14 4 57
-41 50 -52 -4 -6 1 -10 10 -10 9 0 13 4 10 10 -3 5 1 10 9 10 9 0 16 -4 16
-10 0 -5 7 -7 15 -4 13 5 45 -16 45 -30 0 -12 -25 -1 -32 14 -5 12 -7 11 -7
-3 -1 -11 -6 -15 -13 -11 -7 5 -8 3 -3 -6 4 -7 2 -15 -4 -19 -6 -4 -9 -15 -5
-25 5 -13 13 -16 32 -11 22 5 24 3 20 -18 -4 -20 -1 -23 24 -19 20 3 30 -1 35
-14 4 -11 16 -26 26 -34 18 -15 18 -16 -1 -17 -12 -1 -22 6 -25 18 -3 10 -13
19 -22 19 -16 0 -16 -10 2 -56 4 -10 -31 -28 -50 -25 -4 1 -17 -4 -28 -9 -16
-9 -24 -6 -45 20 -14 16 -31 27 -36 23 -7 -3 -8 -1 -4 5 4 7 3 12 -1 12 -5 0
-10 11 -11 25 -1 14 2 24 6 24 33 -5 50 2 45 21 -3 11 -14 20 -24 20 -19 0
-25 11 -12 23 3 4 13 1 21 -6 13 -10 14 -9 8 1 -5 8 -1 19 10 27 23 17 15 19
-21 5 -24 -9 -26 -8 -20 11 7 20 6 20 -25 4 -18 -9 -30 -22 -27 -29 3 -8 0
-19 -6 -25 -9 -9 -8 -15 6 -22 21 -12 23 -33 2 -25 -8 3 -15 1 -15 -3 0 -5 5
-11 10 -13 6 -2 2 -20 -10 -43 -11 -21 -20 -47 -20 -57 0 -9 -4 -19 -9 -22
-14 -9 -19 16 -9 44 l9 25 -28 -26 c-15 -15 -41 -33 -57 -40 -16 -8 -29 -18
-28 -24 0 -5 -4 -17 -9 -26 -7 -14 -1 -19 33 -27 30 -8 46 -8 55 0 7 6 13 7
13 3 0 -4 6 -2 14 4 17 15 40 5 74 -32 20 -21 22 -28 12 -47 -6 -12 -9 -24 -7
-27 3 -2 11 8 19 23 14 30 50 59 87 69 18 5 22 4 16 -6 -6 -9 -3 -11 9 -6 10
4 24 7 32 7 8 0 14 10 15 23 0 12 3 16 6 9 4 -10 9 -10 24 4 10 9 25 14 34 10
9 -3 13 -2 10 3 -3 5 4 16 16 24 15 11 17 16 7 20 -8 3 -6 6 6 6 15 1 17 6 12
32 -5 25 -2 32 14 36 16 4 18 8 9 19 -9 11 -8 14 4 14 22 0 31 -18 17 -35 -8
-10 -7 -16 8 -27 10 -7 22 -20 25 -28 5 -11 6 -9 6 5 -1 11 0 22 1 25 7 18 5
50 -3 50 -6 0 -8 3 -4 6 6 6 58 -30 58 -40 -2 -15 0 -16 13 -4 8 7 12 16 9 21
-2 4 1 7 8 7 8 0 7 5 -2 16 -12 15 -11 16 9 9 21 -6 23 -5 13 13 -14 26 -14
42 0 42 5 0 7 -6 3 -12 -5 -10 -4 -10 6 -2 6 7 13 24 13 38 1 14 5 26 8 26 11
0 18 -27 12 -49 -5 -19 -2 -21 27 -19 25 2 33 -1 36 -15 1 -11 5 -21 8 -24 6
-6 61 -14 93 -14 17 1 21 -4 17 -17 -5 -14 -4 -14 4 -2 6 8 9 17 6 21 -2 4 8
7 23 7 46 -1 54 1 51 14 -1 7 2 24 6 36 6 18 13 22 28 19 11 -3 27 1 35 9 8 8
18 12 23 9 4 -3 6 4 3 15 -3 11 -12 19 -21 18 -22 -4 -27 21 -5 29 10 3 21 11
25 17 4 6 10 8 13 4 3 -3 -1 -13 -10 -22 -15 -15 -15 -16 7 -16 18 0 20 -2 8
-10 -13 -8 -13 -10 1 -10 9 0 19 9 22 20 7 28 19 25 40 -12 14 -25 15 -33 5
-39 -7 -5 -8 -9 -3 -9 16 0 35 -50 35 -91 0 -50 13 -56 29 -13 7 18 16 34 20
34 4 0 12 -20 19 -44 7 -28 29 -65 57 -96 25 -28 45 -55 45 -60 0 -6 4 -10 8
-10 12 0 -47 172 -66 194 -13 14 -14 20 -4 23 6 3 12 9 12 15 0 6 8 16 17 23
15 11 15 15 4 29 -7 9 -11 22 -8 30 3 7 0 19 -6 25 -6 6 -10 32 -8 57 2 39 -1
46 -13 41 -27 -11 -17 9 12 23 24 12 25 14 7 18 -10 2 -21 -1 -23 -7 -11 -33
-33 7 -35 67 -2 38 6 41 27 10 9 -12 16 -17 16 -10 0 7 4 11 9 7 5 -3 13 0 17
6 4 8 3 9 -4 5 -7 -4 -14 3 -17 16 -5 18 -13 24 -33 23 -21 0 -28 5 -30 23 -3
18 -8 23 -23 19 -18 -5 -18 -4 1 21 12 14 20 37 18 51 -2 14 3 26 11 29 9 3
11 -1 6 -17 -4 -14 -2 -21 7 -21 8 0 6 -4 -4 -11 -10 -5 -18 -17 -18 -26 0
-14 2 -14 15 3 13 16 14 16 9 2 -4 -11 -1 -18 6 -18 7 0 9 -8 5 -20 -4 -14 -2
-20 9 -20 12 0 13 5 4 30 -7 23 -7 34 3 46 10 12 14 12 22 2 6 -9 7 -8 3 4 -6
21 12 78 26 78 18 0 37 -28 33 -49 -2 -12 1 -20 8 -18 7 1 12 -9 12 -22 0 -14
6 -26 14 -29 10 -3 11 2 6 19 -4 13 -11 28 -16 34 -5 5 -9 18 -9 29 0 16 3 17
12 8 7 -7 21 -12 32 -11 21 0 21 0 0 9 -14 5 -21 17 -21 34 0 25 14 32 55 27
17 -2 15 26 -2 32 -8 3 -17 -1 -20 -9 -6 -17 -36 -19 -36 -3 0 8 -4 8 -15 -1
-9 -8 -12 -22 -8 -41 7 -38 -2 -37 -22 2 -21 40 -13 61 22 58 31 -4 56 8 48
21 -3 5 4 14 15 20 13 7 20 7 20 0 0 -5 -6 -10 -12 -10 -9 0 -8 -3 2 -10 8 -5
17 -5 20 0 7 11 43 8 52 -5 5 -6 8 -5 8 3 0 6 12 12 27 12 32 0 26 9 -9 12
-20 2 -24 6 -20 22 5 19 4 19 -23 -2 -15 -12 -31 -20 -34 -17 -3 4 1 10 8 15
9 5 11 14 6 26 -5 11 -7 22 -7 27 1 4 -7 2 -17 -5 -15 -9 -23 -9 -36 2 -9 7
-12 16 -7 19 5 3 14 15 20 26 6 11 12 14 12 8 0 -21 17 -15 25 10 l8 22 4 -23
c4 -19 9 -23 29 -18 14 4 24 2 24 -4 0 -5 5 -10 10 -10 6 0 10 12 10 26 0 19
4 25 14 21 9 -4 17 2 21 14 8 23 1 34 -22 34 -9 0 -17 8 -19 18 -1 9 0 17 3
17 11 0 71 -58 66 -64 -4 -3 -1 -6 5 -6 15 0 16 17 2 25 -19 12 -10 26 13 19
26 -8 39 -24 32 -42 -3 -9 0 -10 15 -2 11 6 19 14 19 18 -4 22 4 27 36 27 38
-1 71 -24 48 -32 -7 -3 -13 -14 -13 -26 0 -25 33 -80 42 -71 4 3 11 -18 16
-48 7 -37 10 -44 11 -23 1 21 4 26 10 16 12 -18 31 -5 31 21 0 14 5 18 15 14
22 -8 18 2 -5 14 -11 6 -20 7 -19 3 7 -41 -28 -46 -36 -5 -4 15 -10 34 -14 42
-5 9 -12 34 -15 55 -6 33 -3 42 12 52 15 9 19 8 19 -3 0 -8 -4 -14 -9 -14 -4
0 -8 -7 -8 -15 0 -8 7 -15 15 -15 9 0 20 -10 26 -23 13 -29 36 -31 45 -3 4 13
0 25 -13 36 -15 12 -18 21 -12 38 5 12 15 23 24 23 24 2 29 4 50 16 l20 12
-20 0 c-11 0 -37 -3 -57 -8 -39 -9 -48 -2 -25 17 20 17 16 66 -6 68 -11 1 -12
0 -3 -3 17 -5 15 -45 -4 -68 -10 -13 -15 -13 -21 -3 -7 10 -9 9 -9 -4 0 -19
-25 -25 -35 -8 -3 6 -1 10 5 10 6 0 9 4 6 9 -3 5 3 11 14 14 11 3 20 13 19 24
0 10 -3 13 -5 6 -8 -17 -34 -4 -34 17 0 10 6 21 13 23 7 3 4 6 -6 6 -10 1 -15
6 -12 11 4 6 11 8 16 5 5 -4 10 -1 10 4 3 21 4 26 12 39 14 21 -1 13 -27 -14
l-24 -27 2 32 c1 17 -4 37 -11 43 -10 8 -13 6 -13 -8 -1 -12 -6 -7 -15 15 -18
41 -18 41 0 41 8 0 15 5 15 10 0 6 7 10 15 10 18 0 20 26 3 33 -8 4 -9 6 -2 6
12 1 32 -18 33 -31 1 -11 16 -10 16 1 0 5 3 12 7 16 3 4 4 17 2 30 -5 29 11
41 31 25 8 -7 15 -9 15 -6 0 4 9 -2 21 -13 12 -11 18 -25 14 -32 -5 -7 -3 -10
6 -7 8 3 20 -2 27 -11 8 -9 11 -11 8 -4 -4 6 -2 14 4 18 16 10 -44 64 -76 68
-16 2 -29 10 -29 17 0 7 -9 14 -19 16 -10 1 -26 10 -35 18 -14 15 -14 16 2 16
19 0 23 16 6 22 -7 2 -4 16 9 38 12 18 19 37 17 41 -3 4 11 7 30 7 37 0 43 -6
23 -26 -7 -7 -10 -12 -7 -13 2 0 12 -2 22 -4 12 -2 17 3 17 18 0 28 10 16 16
-19 7 -36 19 -50 27 -30 4 9 2 16 -3 16 -6 0 -10 4 -10 8 0 5 7 9 15 9 13 0
20 -16 16 -39 0 -5 4 -8 9 -8 14 0 13 -47 -1 -52 -9 -3 -9 -9 0 -25 9 -17 8
-25 -4 -37 -20 -20 -19 -30 2 -22 10 4 14 4 10 0 -8 -8 11 -34 25 -34 5 0 7 4
4 8 -3 5 10 8 28 8 20 -1 32 -5 29 -12 -7 -18 33 -23 61 -9 16 8 25 9 23 3 -1
-6 4 -13 11 -15 9 -4 6 9 -8 37 -12 24 -18 45 -13 49 14 9 24 41 13 41 -6 0
-10 -5 -10 -12 0 -6 -11 -1 -24 11 -15 14 -26 19 -31 12 -3 -6 -12 -11 -18
-11 -8 0 -7 3 2 9 11 7 7 13 -18 25 -17 9 -31 23 -31 31 0 8 -7 15 -15 15 -17
0 -19 9 -6 28 11 17 18 17 38 -3 10 -10 18 -13 22 -6 4 6 12 7 21 1 9 -6 10
-10 3 -10 -8 0 -8 -6 0 -24 8 -17 14 -21 19 -12 11 19 -2 56 -19 56 -13 0 -13
3 -2 18 13 15 12 16 -3 3 -16 -12 -18 -11 -18 8 0 15 4 20 13 15 9 -5 9 -3 -1
7 -11 12 -14 12 -22 -1 -5 -8 -5 -21 1 -32 15 -28 -4 -21 -26 9 -11 15 -28 35
-37 45 -21 21 -24 42 -4 35 22 -9 59 22 46 38 -7 9 -6 16 5 25 20 17 19 37 -2
37 -51 -1 -71 5 -77 19 -6 16 17 71 28 67 16 -7 22 -1 21 20 -3 26 34 99 47
91 4 -3 8 11 8 30 0 19 5 38 12 42 8 5 9 0 5 -15 -4 -19 -3 -20 9 -10 8 7 13
18 10 24 -2 7 1 19 7 26 10 11 9 11 -5 0 -15 -11 -18 -11 -18 0 0 27 18 41 59
49 41 7 46 4 41 -29 -1 -9 4 -12 14 -8 28 11 30 -16 3 -39 -21 -18 -23 -23
-11 -28 8 -3 13 -2 10 3 -3 4 6 19 19 31 14 13 25 19 25 12 0 -16 34 -24 61
-14 l23 9 -23 12 c-21 12 -21 14 -7 30 9 10 14 20 10 23 -3 3 14 12 38 20 30
10 43 20 43 33 0 10 6 20 13 22 7 3 10 -1 6 -11 -3 -9 -1 -16 5 -16 6 0 11 8
11 19 0 10 18 36 40 57 22 22 40 44 40 51 0 7 -11 1 -25 -13 -14 -14 -30 -22
-35 -19 -6 3 -10 -2 -10 -11 0 -17 -1 -17 -13 0 -12 16 -14 16 -40 -4 -15 -12
-25 -26 -22 -31 4 -5 0 -9 -7 -10 -7 0 -5 -4 5 -8 16 -6 12 -11 -25 -37 -59
-42 -74 -46 -111 -31 -19 8 -42 10 -57 6 -41 -12 -48 -10 -43 10 3 11 19 25
36 32 33 13 60 37 64 56 2 8 -5 8 -22 -1 -14 -6 -25 -16 -25 -23 0 -7 -9 -17
-20 -23 -11 -6 -20 -8 -20 -5 0 3 -8 1 -19 -4 -24 -13 -33 -4 -18 19 8 14 16
16 28 10 12 -7 21 -5 30 7 8 9 9 14 3 10 -7 -4 -17 0 -23 7 -8 10 -9 16 -1 21
5 3 10 0 10 -7 1 -27 28 23 34 63 5 30 10 39 21 35 9 -3 15 0 15 9 0 8 -3 14
-7 14 -22 -4 -43 2 -43 11 0 7 6 7 19 0 23 -12 29 -5 29 30 0 14 1 30 2 35 4
19 0 35 -10 35 -5 0 -10 -16 -10 -35 l0 -36 -21 20 c-12 11 -19 26 -16 34 7
18 -23 28 -46 16 -25 -15 -25 4 0 28 13 12 23 18 23 14 0 -5 9 -11 20 -14 31
-8 25 27 -7 43 l-28 14 28 4 c16 2 27 9 27 18 0 9 6 14 12 11 7 -2 12 -10 10
-16 -1 -7 2 -10 7 -7 5 4 19 -4 31 -16 17 -18 20 -19 14 -5 -5 13 -1 20 15 24
12 3 20 11 17 18 -2 7 1 18 7 25 8 9 9 11 1 7 -7 -4 -17 0 -23 7 -10 11 -9 21
3 44 16 30 46 60 46 46 0 -5 5 -2 10 6 8 12 10 12 10 -5 0 -11 7 -33 15 -49 8
-15 12 -33 8 -39 -4 -6 -1 -7 7 -2 10 6 12 4 7 -8 -8 -21 20 -37 67 -37 34 0
35 -1 25 -26 -9 -26 -9 -26 13 -12 26 17 48 13 48 -8 0 -8 10 -14 24 -14 28 0
66 42 66 73 0 20 -1 20 -14 2 -8 -12 -19 -16 -31 -11 -15 5 -16 4 -5 -9 16
-19 5 -32 -14 -16 -8 6 -19 10 -26 9 -24 -6 -21 21 4 38 22 14 29 14 43 3 14
-12 16 -12 9 0 -5 8 -4 16 4 21 9 5 9 9 1 14 -6 4 -11 2 -11 -3 0 -6 -5 -11
-11 -11 -5 0 -7 5 -3 11 3 6 2 14 -4 18 -16 10 -3 49 18 56 26 8 32 31 12 47
-11 9 -14 10 -8 1 4 -8 2 -13 -4 -13 -6 0 -8 -4 -5 -10 4 -6 -6 -10 -22 -10
-22 0 -25 2 -13 10 12 8 11 11 -9 16 l-23 7 23 13 c23 12 22 13 -11 8 -19 -3
-48 0 -65 5 -29 9 -29 9 -5 10 24 2 24 2 6 16 -23 17 -50 20 -41 5 4 -6 12 -8
18 -4 7 3 3 -2 -7 -10 -11 -9 -14 -16 -8 -16 7 0 10 -10 8 -22 -2 -19 4 -25
33 -34 26 -9 30 -12 14 -13 -12 -1 -38 7 -57 16 -30 14 -34 19 -23 31 11 13 9
14 -10 1 -13 -8 -23 -18 -23 -24 0 -5 -7 -2 -15 9 -8 10 -19 15 -27 11 -7 -3
-4 1 6 9 19 16 19 16 -2 16 -12 0 -22 5 -22 10 0 13 56 13 81 0 10 -6 19 -7
20 -3 0 4 2 16 4 26 2 9 -3 17 -11 17 -8 0 -14 -6 -14 -12 0 -9 -3 -8 -9 2 -6
8 -8 17 -5 21 2 4 -4 10 -13 12 -10 3 -2 6 17 7 41 3 40 3 60 -3 8 -2 12 -2 8
0 -5 3 -8 11 -8 18 0 18 71 7 86 -13 8 -11 13 -12 18 -3 11 17 4 22 -44 28
-42 6 -38 23 6 23 11 0 29 7 40 16 18 15 18 15 -3 5 -28 -14 -76 -14 -68 -1 3
6 -1 10 -11 10 -13 0 -14 3 -4 15 8 9 30 15 59 15 46 0 96 23 86 40 -3 5 -1
11 4 15 6 3 8 12 4 20 -3 8 0 15 6 15 12 0 15 36 4 43 -5 3 -21 -1 -38 -9 -16
-8 -20 -11 -8 -8 12 2 25 -1 29 -7 4 -8 3 -9 -4 -5 -7 4 -12 2 -12 -3 0 -6 -8
-11 -17 -12 -11 0 -13 -3 -5 -6 6 -2 9 -10 5 -16 -4 -7 0 -8 13 -3 10 4 15 4
11 0 -3 -4 -30 -15 -59 -25 -45 -15 -55 -16 -67 -4 -12 12 -9 17 20 34 19 12
40 21 47 21 6 0 12 4 12 9 0 5 -9 7 -20 4 -23 -6 -25 0 -9 29 17 32 -7 39 -59
17 -29 -13 -57 -18 -80 -14 -28 4 -37 1 -54 -20 -16 -20 -23 -23 -34 -14 -8 6
-12 15 -9 19 3 5 -1 11 -7 13 -10 4 -10 6 0 6 6 1 12 7 12 14 -1 6 -9 2 -20
-11 -18 -22 -19 -22 -25 -2 -3 11 -9 19 -13 19 -19 -3 -23 3 -11 17 10 13 10
17 -2 25 -11 7 -11 9 4 9 11 0 17 7 16 23 -1 16 -2 18 -6 5 -5 -22 -23 -24
-23 -3 0 8 -5 15 -11 15 -5 0 -8 4 -4 10 3 5 3 20 -1 34 -4 17 -11 23 -25 21
-11 -2 -17 0 -14 6 4 5 11 7 16 4 5 -4 9 3 9 15 0 11 -7 23 -15 26 -8 4 -15
13 -15 21 0 9 -8 22 -17 30 -13 10 -15 16 -6 19 9 4 7 16 -8 45 -11 22 -24 37
-30 34 -5 -4 -8 7 -7 27 3 30 1 33 -21 30 -14 -1 -22 1 -18 5 4 3 -1 16 -12
27 -17 18 -17 23 -5 34 12 11 15 8 20 -17 4 -17 10 -31 15 -31 12 0 12 1 -6
45 -9 20 -15 44 -14 53 3 30 -1 43 -10 38 -5 -3 -14 1 -21 9 -18 21 -42 0 -34
-29 3 -14 -1 -27 -10 -35 -13 -11 -21 -7 -51 23 -20 20 -40 36 -46 36 -10 0
-6 61 6 93 8 18 27 19 26 2 0 -6 9 -13 20 -17 11 -4 18 -12 15 -16 -3 -5 6
-14 20 -21 36 -16 42 -13 18 7 -12 10 -25 34 -29 53 -4 19 -12 40 -17 47 -14
16 4 37 62 73 25 16 40 29 34 29 -5 0 -15 -5 -22 -12 -8 -8 -15 -8 -26 2 -24
19 -49 5 -42 -23 4 -17 -1 -29 -17 -43 -27 -22 -47 -28 -47 -14 0 5 5 10 11
10 6 0 17 7 25 15 9 8 11 15 5 15 -6 0 -19 17 -30 38 -11 21 -30 43 -43 49
-33 16 -67 22 -73 13 -8 -13 6 -40 21 -40 21 0 17 -21 -6 -27 -11 -3 -20 -9
-20 -15 0 -5 -9 -4 -20 2 -24 13 -26 5 -4 -18 15 -15 17 -15 29 1 11 16 13 15
13 -9 0 -19 -7 -28 -28 -36 -21 -7 -27 -14 -23 -29 4 -13 0 -19 -12 -19 -9 0
-19 9 -22 21 -3 12 -11 18 -19 15 -9 -3 -14 1 -14 12 0 10 -3 13 -8 6 -4 -6
-13 -4 -24 7 -15 16 -15 18 4 22 11 3 17 10 14 16 -4 6 7 8 31 4 21 -3 35 -2
31 2 -4 4 -2 19 3 33 8 21 8 23 -5 13 -8 -7 -20 -10 -26 -6 -5 3 -10 1 -10 -4
0 -6 -5 -11 -10 -11 -6 0 -6 7 2 19 6 10 19 17 27 14 11 -3 10 0 -3 11 -26 21
-27 21 -65 -19 -18 -19 -37 -33 -42 -29 -5 3 -9 -4 -9 -15 0 -14 -5 -19 -16
-14 -13 5 -12 9 5 27 12 12 21 27 21 33 0 5 14 14 32 19 38 11 47 30 19 39
-23 7 -17 35 8 35 13 0 13 -2 2 -9 -10 -7 -6 -9 13 -8 l27 2 -28 22 c-15 13
-36 23 -47 23 -13 0 -17 5 -13 19 4 18 1 17 -34 -6 -22 -14 -37 -28 -34 -31 3
-3 11 0 17 6 7 7 19 12 27 12 13 -1 13 -2 -1 -11 -10 -5 -18 -16 -18 -24 0
-10 -9 -12 -32 -8 -29 4 -33 2 -34 -19 -3 -46 -8 -67 -16 -62 -4 2 -12 -4 -18
-15 -6 -13 -16 -18 -26 -14 -13 5 -13 7 -2 14 10 7 8 9 -5 9 -11 0 -27 10 -38
23 l-18 22 -1 -23 c0 -13 -4 -20 -10 -17 -5 3 -10 14 -10 24 0 11 -12 21 -34
28 -31 10 -33 9 -28 -10 4 -17 1 -19 -22 -15 -21 4 -24 3 -15 -8 9 -11 7 -14
-12 -15 -13 -1 -32 -1 -41 0 -10 1 -18 -3 -18 -8 0 -8 -6 -8 -17 -2 -10 5 -26
12 -35 15 -18 5 -61 83 -53 96 3 4 -4 10 -15 13 -24 6 -26 -8 -4 -30 14 -15
14 -17 0 -25 -9 -5 -25 -6 -36 -3 -13 4 -20 2 -20 -7 0 -10 -2 -10 -9 1 -7 11
-12 8 -25 -12 -10 -14 -30 -30 -45 -37 -27 -11 -61 -60 -42 -60 5 0 12 -7 15
-16 3 -8 2 -12 -4 -9 -6 3 -13 0 -16 -9 -9 -24 -34 -28 -34 -5 0 13 5 18 13
14 6 -4 4 0 -5 8 -11 9 -16 23 -13 40 3 14 1 29 -5 32 -10 6 -12 -1 -13 -42 0
-12 -3 -20 -8 -18 -4 3 -10 1 -14 -5 -3 -5 -1 -10 6 -10 7 0 9 -10 7 -25 -4
-17 -1 -25 8 -25 8 0 14 -5 14 -11 0 -7 9 -9 23 -6 22 6 22 6 2 -9 -18 -13
-21 -13 -32 3 -12 15 -13 14 -13 -10 0 -17 -5 -27 -15 -27 -8 0 -15 7 -15 15
0 8 5 15 10 15 6 0 10 5 10 11 0 8 -4 8 -15 -1 -8 -6 -19 -9 -24 -5 -6 3 -21
-3 -33 -14 -12 -12 -27 -21 -33 -21 -19 0 -46 36 -40 52 7 18 -13 38 -40 38
-3 0 3 8 13 18 9 11 20 17 24 15 10 -5 30 36 23 47 -4 6 -12 4 -21 -4 -8 -9
-22 -12 -32 -9 -14 5 -15 3 -4 -8 18 -19 15 -32 -7 -26 -13 3 -18 0 -15 -8 3
-7 -2 -15 -10 -18 -10 -4 -16 -1 -16 8 0 8 -7 15 -16 15 -26 0 -11 -33 26 -58
19 -13 36 -29 38 -35 2 -7 -1 -5 -7 3 -9 12 -11 11 -11 -7 0 -13 -9 -28 -19
-35 -18 -11 -18 -13 -3 -25 16 -11 16 -12 0 -13 -10 0 -18 -5 -18 -11 0 -6 -7
-8 -16 -5 -15 6 -15 4 -3 -10 12 -15 9 -16 -31 -9 -25 4 -55 7 -68 6 -13 0
-21 3 -18 7 2 4 -4 8 -15 8 -11 0 -18 -5 -15 -13 3 -7 -19 1 -49 17 -30 16
-55 25 -55 20 0 -6 6 -10 14 -10 20 0 40 -26 26 -35 -7 -4 -9 -19 -5 -36 5
-22 3 -29 -9 -29 -9 0 -16 -5 -16 -10 0 -7 6 -7 19 0 11 5 22 6 25 1 8 -12 -4
-21 -26 -21 -10 0 -18 -6 -18 -13 0 -7 -9 -18 -20 -25 -18 -11 -19 -10 -8 13
15 34 -4 58 -22 26 -6 -12 -15 -19 -21 -16 -5 4 -6 11 -3 17 4 6 -3 5 -16 -2
-12 -6 -29 -9 -37 -6 -13 5 -14 4 -3 -9 10 -12 8 -16 -14 -25 -33 -12 -33 -23
-1 -40 14 -8 24 -19 21 -26 -2 -6 0 -16 6 -22 7 -7 3 -14 -13 -22 -18 -10 -24
-10 -33 2 -6 7 -19 12 -28 10 -12 -2 -18 3 -18 15 -1 17 -1 17 -14 0 -23 -31
-42 15 -25 60 11 29 30 22 22 -8 -10 -38 33 0 47 40 6 20 14 42 16 48 4 9 -3
12 -19 11 -20 -2 -24 -6 -17 -18 6 -11 3 -20 -12 -29 -16 -10 -19 -10 -13 1 4
7 -5 0 -19 -17 -24 -27 -26 -27 -14 -5 7 14 11 28 10 33 -1 4 3 7 9 7 5 0 7 6
3 13 -6 9 -5 9 7 0 11 -9 14 -7 14 12 0 18 -3 21 -17 14 -11 -6 -22 -4 -32 7
-18 18 -21 28 -5 18 6 -3 15 0 20 7 6 10 9 11 9 2 0 -7 5 -13 11 -13 8 0 8 4
-1 14 -6 8 -18 12 -27 9 -11 -4 -14 -2 -11 8 9 27 34 19 56 -18 12 -22 22 -31
22 -21 0 9 -4 20 -10 23 -17 10 -11 21 11 21 15 0 19 -5 15 -20 -3 -13 -2 -16
6 -8 17 17 11 86 -11 135 -11 24 -23 64 -27 88 -12 76 -20 78 -41 11 l-18 -61
-35 29 c-19 17 -46 39 -59 50 -13 12 -26 18 -30 14 -3 -4 0 -9 7 -11 6 -3 12
-13 12 -24 0 -10 6 -19 12 -19 7 0 3 -7 -9 -15 -19 -13 -27 -14 -62 -1 -39 13
-41 13 -41 -6 0 -11 -5 -18 -12 -15 -7 2 -12 12 -12 21 2 16 1 16 -16 1 -16
-14 -17 -21 -7 -36 6 -10 16 -19 21 -19 5 0 1 -10 -10 -22 -19 -21 -19 -21 1
-14 14 5 17 4 9 -4 -7 -7 -19 -8 -36 -1 -29 11 -39 6 -31 -15 3 -9 -1 -14 -12
-14 -9 0 -19 9 -22 21 -4 14 -12 19 -24 16 -12 -3 -19 0 -19 9 0 8 -5 14 -11
14 -6 0 -9 -7 -6 -14 8 -20 -24 -29 -66 -21 -18 4 -28 4 -24 -1 5 -5 13 -10
18 -10 5 -1 14 -2 20 -3 5 0 7 -7 3 -13 -6 -10 -5 -10 7 -1 12 10 17 8 26 -7
10 -14 9 -21 -3 -31 -12 -10 -13 -9 -8 5 8 20 -3 21 -23 1 -8 -9 -23 -14 -32
-13 -9 2 -25 -6 -36 -19 -18 -21 -24 -22 -60 -12 -50 14 -49 13 -35 40 l13 22
-28 -21 c-15 -12 -37 -22 -49 -22 -20 1 -20 2 -3 14 21 16 22 36 1 36 -8 0
-12 5 -9 10 4 6 -5 10 -19 10 -19 0 -26 5 -26 19 0 21 -23 45 -33 34 -12 -11
-8 -23 8 -23 20 0 19 -16 -1 -24 -8 -3 -12 -2 -9 4 3 6 -1 10 -10 10 -15 0
-15 3 1 33 31 59 34 67 27 66 -22 -4 -33 3 -33 20 0 14 5 18 20 14 12 -3 20 0
20 6 0 7 -4 9 -10 6 -11 -7 -13 6 -12 78 1 34 -3 47 -13 47 -9 0 -12 -6 -9
-15 8 -19 -15 -77 -27 -69 -5 3 -9 -1 -10 -8 0 -7 -4 -4 -9 7 -5 13 -3 26 6
36 18 20 18 35 0 42 -10 4 -13 18 -10 49 3 31 2 37 -5 23 -8 -18 -9 -17 -12 9
-4 28 -5 28 -19 11z m2370 -108 c0 -6 -3 -7 -7 -4 -3 4 -13 1 -22 -6 -14 -10
-14 -10 -4 4 7 9 10 19 6 23 -4 4 0 4 10 0 9 -3 17 -11 17 -17z m24 -31 c-3
-9 -10 -16 -15 -16 -5 0 -4 9 3 20 14 22 21 20 12 -4z m-540 -12 c3 -8 2 -12
-4 -9 -6 3 -10 10 -10 16 0 14 7 11 14 -7z m506 -44 c0 -5 -2 -10 -4 -10 -3 0
-8 5 -11 10 -3 6 -1 10 4 10 6 0 11 -4 11 -10z m-520 -4 c0 -3 -4 -8 -10 -11
-5 -3 -10 -1 -10 4 0 6 5 11 10 11 6 0 10 -2 10 -4z m-2009 -35 c0 -12 2 -11
9 4 7 18 8 19 15 3 4 -10 5 -25 1 -33 -3 -8 3 -19 14 -25 10 -5 28 -23 40 -40
20 -28 20 -30 3 -36 -10 -4 -26 -16 -36 -28 -10 -12 -16 -15 -12 -9 4 9 -2 11
-23 7 -27 -6 -31 -3 -43 30 -7 20 -17 36 -21 36 -28 0 10 50 39 51 15 0 14 2
-4 9 -29 12 -29 60 -1 52 10 -2 18 -12 19 -21z m181 -13 c-6 -6 -12 -6 -17 3
-5 8 -4 10 3 5 7 -4 12 0 13 11 0 12 2 13 6 5 3 -8 1 -18 -5 -24z m2655 2 c11
-17 10 -18 -5 -13 -15 6 -15 5 -3 -10 8 -10 11 -20 7 -24 -3 -3 -6 -1 -6 5 0
6 -9 13 -19 17 -13 4 -17 12 -14 25 7 25 25 25 40 0z m58 10 c3 -5 1 -10 -4
-10 -6 0 -11 5 -11 10 0 6 2 10 4 10 3 0 8 -4 11 -10z m-935 -20 c0 -5 -4 -10
-10 -10 -5 0 -10 5 -10 10 0 6 5 10 10 10 6 0 10 -4 10 -10z m-945 -65 c0 -43
-3 -49 -22 -50 -12 -1 -20 2 -17 6 2 4 0 10 -5 14 -5 3 -8 14 -6 25 2 11 0 20
-4 20 -11 0 -10 34 2 42 6 3 20 3 31 -2 17 -6 21 -16 21 -55z m585 55 c0 -5
-5 -10 -11 -10 -5 0 -7 5 -4 10 3 6 8 10 11 10 2 0 4 -4 4 -10z m325 0 c3 -6
-1 -7 -9 -4 -18 7 -21 14 -7 14 6 0 13 -4 16 -10z m949 -53 c-6 -16 -67 -20
-61 -4 2 7 9 12 15 12 5 0 13 3 17 7 11 10 34 -2 29 -15z m-1933 -4 c13 -16
12 -17 -3 -4 -17 13 -22 21 -14 21 2 0 10 -8 17 -17z m-36 -17 c21 -17 24 -24
13 -22 -10 1 -25 11 -33 22 -8 10 -14 13 -13 6 2 -8 -7 -21 -19 -29 -15 -10
-23 -11 -23 -4 0 6 8 11 18 12 10 0 12 3 5 6 -19 7 -15 33 5 33 9 0 31 -11 47
-24z m1925 -16 c12 20 30 1 21 -23 -6 -16 -9 -15 -38 5 -18 13 -33 27 -33 32
0 5 9 1 21 -10 17 -15 22 -16 29 -4z m-1176 -5 c11 -8 16 -15 10 -15 -5 0 -18
7 -28 15 -11 8 -16 15 -10 15 5 0 18 -7 28 -15z m-739 -10 c6 -1 15 3 22 8 7
5 15 1 22 -12 16 -29 14 -31 -21 -20 -18 6 -40 12 -48 14 -8 2 -16 4 -18 4 -2
1 0 6 3 11 4 6 12 7 18 3 7 -4 17 -8 22 -8z m-635 -24 c0 -13 -29 -35 -37 -27
-3 3 -1 6 5 6 7 0 12 7 12 15 0 8 5 15 10 15 6 0 10 -4 10 -9z m-400 -10 c0
-14 -18 -23 -31 -15 -8 4 -7 9 2 15 18 11 29 11 29 0z m70 -23 c0 -11 -50 -42
-57 -35 -3 4 0 14 8 24 12 15 12 16 -6 9 -24 -9 -13 3 17 19 22 11 37 4 38
-17z m790 22 c0 -5 -4 -10 -10 -10 -5 0 -10 5 -10 10 0 6 5 10 10 10 6 0 10
-4 10 -10z m-650 -21 c0 -5 -7 -9 -16 -9 -11 0 -14 -6 -9 -20 7 -23 -5 -26
-24 -7 -10 10 -11 9 -6 -4 4 -10 2 -20 -3 -23 -12 -7 -25 40 -16 55 4 6 12 5
22 -3 13 -11 14 -11 7 1 -5 10 -4 12 4 7 6 -4 14 0 17 8 6 16 24 13 24 -5z
m888 -1 c-3 -15 33 -78 44 -78 16 0 7 -18 -11 -23 -23 -6 -46 7 -37 22 4 6 0
21 -9 35 -11 16 -13 26 -5 31 6 3 8 11 5 16 -4 5 -1 9 5 9 6 0 10 -6 8 -12z
m397 -9 c11 -17 0 -20 -21 -4 -17 13 -17 14 -2 15 9 0 20 -5 23 -11z m-745
-40 c1 -19 -36 -18 -54 1 -18 17 -19 22 -7 29 14 9 60 -15 61 -30z m873 13
c-6 -25 -30 -30 -30 -7 0 8 6 15 14 15 7 0 13 5 13 12 0 6 2 9 5 7 2 -3 2 -15
-2 -27z m1495 -63 c-3 -8 -7 -3 -11 10 -4 17 -3 21 5 13 5 -5 8 -16 6 -23z
m-1574 6 c-4 -8 -10 -12 -15 -9 -11 6 -2 24 11 24 5 0 7 -7 4 -15z m-407 -47
c-3 -7 -5 -2 -5 12 0 14 2 19 5 13 2 -7 2 -19 0 -25z m307 17 c-4 -8 -8 -15
-10 -15 -2 0 -4 7 -4 15 0 8 4 15 10 15 5 0 7 -7 4 -15z m-223 -18 c-10 -9
-11 -8 -5 6 3 10 9 15 12 12 3 -3 0 -11 -7 -18z m1934 12 c11 -17 -1 -21 -15
-4 -8 9 -8 15 -2 15 6 0 14 -5 17 -11z m-3311 -53 c-3 -9 -10 -13 -16 -10 -5
3 -4 12 3 20 15 18 22 13 13 -10z m96 -96 c0 -5 -5 -10 -11 -10 -5 0 -7 5 -4
10 3 6 8 10 11 10 2 0 4 -4 4 -10z m-106 -13 c16 -11 14 -13 -11 -11 -36 3
-35 2 -28 14 8 13 18 13 39 -3z m-530 -102 c-4 -8 -10 -15 -15 -15 -4 0 -6 7
-3 15 4 8 10 15 15 15 4 0 6 -7 3 -15z m26 -5 c0 -5 -5 -10 -11 -10 -5 0 -7 5
-4 10 3 6 8 10 11 10 2 0 4 -4 4 -10z m53 -56 c-8 -21 -23 -17 -23 6 0 13 5
18 14 14 8 -3 12 -12 9 -20z m37 4 c0 -18 -2 -20 -9 -8 -6 8 -7 18 -5 22 9 14
14 9 14 -14z m3900 -128 c0 -5 -4 -10 -10 -10 -5 0 -10 5 -10 10 0 6 5 10 10
10 6 0 10 -4 10 -10z m315 -16 c-10 -8 -22 -11 -28 -7 -11 7 7 20 30 20 13 0
13 -2 -2 -13z m-118 -28 c-6 -16 16 -12 40 6 18 14 58 5 58 -12 0 -8 -6 -14
-12 -12 -7 1 -13 -3 -13 -9 0 -7 -11 -8 -30 -4 -23 5 -29 3 -25 -7 3 -8 -12
-23 -37 -38 -22 -14 -47 -31 -55 -39 -8 -7 -16 -11 -19 -8 -3 3 11 22 32 42
22 22 28 33 15 26 -11 -7 -21 -9 -21 -6 0 14 31 64 42 68 23 10 30 7 25 -7z
m-117 -6 c0 -5 -4 -10 -10 -10 -5 0 -10 5 -10 10 0 6 5 10 10 10 6 0 10 -4 10
-10z m8 -29 c6 -1 12 -11 12 -23 0 -19 2 -20 11 -8 8 13 10 12 7 -4 -4 -26
-39 -30 -45 -5 -5 19 -6 19 -20 2 -14 -17 -14 -17 -10 5 4 16 0 22 -11 22 -14
0 -14 2 -3 9 7 5 21 7 30 6 9 -2 22 -4 29 -4z m312 -41 c0 -5 -7 -10 -16 -10
-8 0 -12 5 -9 10 3 6 10 10 16 10 5 0 9 -4 9 -10z m-366 -15 c3 -8 1 -15 -4
-15 -6 0 -10 7 -10 15 0 8 2 15 4 15 2 0 6 -7 10 -15z m237 -10 c0 -5 -9 -11
-21 -13 -15 -3 -18 1 -14 13 7 17 35 17 35 0z m-77 -3 c7 -12 -17 -38 -41 -46
-19 -6 -22 -4 -16 11 13 38 43 57 57 35z m-4006 -63 c-20 -13 -28 -11 -22 5 3
8 12 12 21 9 12 -5 12 -7 1 -14z m4087 3 c-3 -3 -18 -8 -33 -9 l-27 -3 25 13
c24 13 48 12 35 -1z m-85 -2 c0 -6 -8 -14 -17 -18 -14 -5 -12 -8 12 -13 l30
-7 -32 -1 c-33 -1 -38 5 -27 33 7 18 34 22 34 6z m-25 -80 c3 -5 2 -10 -4 -10
-5 0 -13 5 -16 10 -3 6 -2 10 4 10 5 0 13 -4 16 -10z m-105 -39 c0 -6 -4 -12
-8 -15 -5 -3 -9 1 -9 9 0 8 4 15 9 15 4 0 8 -4 8 -9z m-35 -21 c3 -5 -1 -10
-10 -10 -9 0 -13 5 -10 10 3 6 8 10 10 10 2 0 7 -4 10 -10z m265 -14 c0 -8 6
-17 13 -19 7 -3 5 -6 -5 -6 -10 -1 -18 4 -18 9 0 6 -7 10 -16 10 -8 0 -12 5
-9 10 9 15 35 12 35 -4z m-4399 -23 c-12 -20 -14 -14 -5 12 4 9 9 14 11 11 3
-2 0 -13 -6 -23z m95 -40 c-11 -11 -17 4 -9 23 7 18 8 18 11 1 2 -10 1 -21 -2
-24z m4209 14 c13 17 14 17 20 0 4 -9 2 -24 -5 -32 -13 -16 -35 -21 -25 -6 3
5 1 12 -5 16 -5 3 -9 14 -9 23 1 15 2 14 6 -1 5 -18 5 -18 18 0z m166 -14 c13
-16 12 -17 -3 -4 -10 7 -18 15 -18 17 0 8 8 3 21 -13z m-51 -3 c13 -8 13 -10
-2 -10 -9 0 -20 5 -23 10 -8 13 5 13 25 0z m-344 -22 c4 -7 3 -8 -4 -4 -8 4
-12 0 -12 -11 0 -15 -2 -16 -10 -3 -6 9 -5 17 3 22 15 10 15 10 23 -4z m73 -3
c2 -2 -4 -11 -13 -20 -9 -9 -16 -25 -16 -36 0 -10 -5 -19 -11 -19 -6 0 -9 14
-8 33 2 18 -1 39 -5 46 -7 11 -3 12 20 7 16 -4 31 -9 33 -11z m249 -4 c3 -10
-4 -12 -27 -9 -20 3 -31 0 -31 -8 0 -6 -7 -14 -15 -18 -14 -5 -17 0 -14 22 1
4 5 6 10 5 5 -2 9 4 9 13 0 19 61 15 68 -5z m41 -20 c9 -11 21 -17 30 -13 14
5 14 3 2 -11 -7 -9 -24 -17 -38 -17 -16 0 -22 -4 -17 -12 4 -7 3 -8 -4 -4 -9
5 -10 45 -3 74 3 8 19 -1 30 -17z m-271 -12 c-2 -6 -8 -10 -13 -10 -5 0 -11 4
-13 10 -2 6 4 11 13 11 9 0 15 -5 13 -11z m222 3 c0 -4 -9 -8 -20 -8 -11 0
-20 4 -20 8 0 4 9 8 20 8 11 0 20 -4 20 -8z m-219 -55 c-8 -8 -11 -7 -11 4 0
20 13 34 18 19 3 -7 -1 -17 -7 -23z m203 18 c-4 -8 -8 -15 -10 -15 -2 0 -4 7
-4 15 0 8 4 15 10 15 5 0 7 -7 4 -15z m-4204 -65 c0 -5 -2 -10 -4 -10 -3 0 -8
5 -11 10 -3 6 -1 10 4 10 6 0 11 -4 11 -10z m3903 -114 c18 -18 11 -66 -10
-66 -8 0 -12 4 -9 9 3 5 -1 14 -9 21 -11 9 -12 17 -4 31 12 23 14 23 32 5z
m-13 -116 c0 -5 -15 -17 -32 -26 -29 -15 -32 -15 -20 -1 8 9 11 21 7 27 -4 6
4 10 19 10 14 0 26 -4 26 -10z m-82 -36 c0 -15 -4 -21 -8 -14 -4 6 -10 11 -14
11 -7 -1 -6 7 1 26 8 20 21 6 21 -23z m-4102 -36 c4 -7 8 -22 9 -34 0 -18 -2
-20 -17 -10 -21 13 -32 36 -17 36 6 0 7 5 4 10 -3 6 -2 10 4 10 5 0 13 -5 17
-12z m4123 -45 c-6 -7 -15 -10 -20 -7 -13 8 -3 21 15 21 12 0 13 -4 5 -14z
m-29 -41 c0 -28 -11 -34 -26 -14 -14 19 -10 32 12 32 8 0 14 -8 14 -18z
m-4020 -42 c0 -5 -2 -10 -4 -10 -3 0 -8 5 -11 10 -3 6 -1 10 4 10 6 0 11 -4
11 -10z m370 6 c0 -3 -4 -8 -10 -11 -5 -3 -10 -1 -10 4 0 6 5 11 10 11 6 0 10
-2 10 -4z m3915 -16 c-3 -5 -12 -10 -18 -10 -7 0 -6 4 3 10 19 12 23 12 15 0z
m-300 -360 c3 -5 1 -10 -4 -10 -6 0 -11 5 -11 10 0 6 2 10 4 10 3 0 8 -4 11
-10z m-65 -100 c0 -5 -5 -10 -11 -10 -5 0 -7 5 -4 10 3 6 8 10 11 10 2 0 4 -4
4 -10z m-3220 -16 c0 -8 -4 -12 -10 -9 -5 3 -10 10 -10 16 0 5 5 9 10 9 6 0
10 -7 10 -16z m-203 -29 c0 -8 -5 -15 -11 -15 -6 0 -3 -7 6 -14 10 -7 15 -16
12 -19 -12 -12 -35 23 -29 43 7 23 22 27 22 5z m-64 -52 c-14 -11 -14 -17 -5
-38 7 -14 12 -34 12 -43 0 -15 -2 -15 -10 -2 -7 11 -10 11 -10 2 0 -7 -4 -11
-9 -7 -12 7 -10 45 2 45 4 0 4 8 -1 17 -13 22 16 72 29 51 6 -8 2 -18 -8 -25z
m137 5 c0 -7 -11 -13 -25 -13 -23 0 -24 1 -8 13 9 6 20 12 25 12 4 0 8 -6 8
-12z m3430 -58 c0 -13 5 -17 21 -13 19 5 20 4 8 -15 -12 -18 -11 -24 7 -44 12
-13 25 -30 29 -38 8 -13 7 -13 -10 0 -14 11 -19 12 -22 2 -3 -6 -9 -9 -14 -6
-6 3 -5 12 3 22 11 13 10 15 -5 9 -15 -6 -17 -3 -12 14 5 16 4 19 -6 14 -9 -6
-11 -4 -6 8 3 9 2 19 -2 22 -5 2 -11 16 -13 29 -4 17 -1 23 9 19 7 -3 13 -13
13 -23z m-3510 0 c0 -5 -5 -10 -11 -10 -5 0 -7 5 -4 10 3 6 8 10 11 10 2 0 4
-4 4 -10z m3310 -62 c0 -10 -3 -18 -7 -18 -5 0 -19 -3 -32 -7 -21 -5 -23 -4
-17 13 4 10 9 26 11 34 2 8 4 16 4 18 3 10 41 -27 41 -40z m-2920 -44 c0 -8
-4 -14 -10 -14 -5 0 -10 9 -10 21 0 11 5 17 10 14 6 -3 10 -13 10 -21z m-294
-30 c-4 -34 -50 -63 -60 -38 -4 10 3 25 19 40 34 31 44 30 41 -2z m3129 6 c-3
-5 -11 -10 -16 -10 -6 0 -7 5 -4 10 3 6 11 10 16 10 6 0 7 -4 4 -10z m380 0
c3 -5 1 -10 -4 -10 -6 0 -11 5 -11 10 0 6 2 10 4 10 3 0 8 -4 11 -10z m-428
-26 c-9 -9 -28 6 -21 18 4 6 10 6 17 -1 6 -6 8 -13 4 -17z m28 -82 c-3 -3 -11
0 -18 7 -9 10 -8 11 6 5 10 -3 15 -9 12 -12z m50 -69 c1 -16 6 -41 10 -58 4
-16 4 -27 0 -23 -4 4 -16 3 -26 -3 -16 -8 -19 -6 -19 10 0 11 -4 23 -10 26 -5
3 -10 12 -10 18 0 7 7 4 14 -5 16 -22 36 -23 36 -3 0 8 -7 15 -16 15 -12 0
-14 3 -6 13 6 7 8 24 5 38 -5 19 -3 22 7 12 8 -7 14 -25 15 -40z m-69 9 c-9
-9 -37 8 -31 18 5 8 11 7 21 -1 8 -6 12 -14 10 -17z m-2835 -75 c-1 -4 -4 -7
-7 -6 -4 0 -10 -5 -15 -12 -4 -8 -11 -10 -15 -6 -9 8 16 39 28 35 5 -2 9 -7 9
-11z m2746 -8 c-1 -14 -6 -17 -22 -13 -11 4 -22 8 -24 10 -8 7 9 20 28 21 14
1 19 -4 18 -18z m57 6 c-4 -8 -11 -12 -18 -8 -6 3 -6 1 2 -8 16 -17 15 -29 -2
-29 -16 0 -31 34 -21 50 10 17 45 12 39 -5z m33 -25 c-4 -14 0 -20 11 -20 15
-1 15 -2 -2 -15 -10 -7 -15 -18 -11 -24 3 -6 3 -11 -2 -12 -4 0 -18 -2 -29 -5
-18 -3 -22 1 -20 20 0 14 5 24 10 23 5 -1 16 10 23 26 16 32 28 36 20 7z
m-2952 0 c3 -5 1 -10 -4 -10 -6 0 -11 5 -11 10 0 6 2 10 4 10 3 0 8 -4 11 -10z
m162 -7 c-4 -3 -2 -12 4 -20 9 -10 6 -13 -15 -13 -24 0 -25 2 -16 20 6 11 16
20 22 20 6 0 8 -3 5 -7z m2851 -40 c-13 -12 -15 -12 -13 4 0 10 5 25 10 33 8
13 10 12 13 -4 2 -10 -3 -25 -10 -33z m-3068 29 c0 -13 -12 -22 -22 -16 -10 6
-1 24 13 24 5 0 9 -4 9 -8z m2911 -14 c0 -10 2 -10 6 0 2 6 9 9 14 6 6 -3 2
-12 -8 -19 -19 -14 -48 -1 -37 16 8 13 24 11 25 -3z m269 -92 c0 -4 -9 -1 -19
6 -11 7 -17 16 -15 20 5 8 34 -15 34 -26z m-3020 20 c0 -3 -4 -8 -10 -11 -5
-3 -10 -1 -10 4 0 6 5 11 10 11 6 0 10 -2 10 -4z m286 -23 c-10 -10 -19 5 -10
18 6 11 8 11 12 0 2 -7 1 -15 -2 -18z m2404 9 c0 -14 -11 -21 -26 -15 -8 3
-11 9 -8 14 7 11 34 12 34 1z m-2749 -20 c-13 -2 -27 0 -32 5 -6 6 3 7 23 4
28 -4 29 -6 9 -9z m309 14 c0 -2 -7 -6 -15 -10 -8 -3 -15 -1 -15 4 0 6 7 10
15 10 8 0 15 -2 15 -4z m40 -38 c-22 -36 -26 -53 -11 -43 11 6 31 -25 31 -47
-1 -7 -7 -2 -14 11 -10 18 -15 20 -19 10 -4 -10 -6 -8 -6 5 -1 14 -7 17 -26
14 -14 -3 -25 -1 -25 3 0 5 -7 6 -16 2 -9 -3 -13 -12 -9 -21 3 -9 3 -13 -1 -9
-4 4 -13 -1 -20 -11 -12 -16 -13 -16 -19 1 -6 15 -10 15 -23 5 -13 -11 -15
-10 -9 4 4 12 -1 19 -19 25 -24 8 -24 9 15 19 35 10 40 9 44 -8 5 -16 3 -17
-9 -7 -13 11 -13 9 -2 -15 l12 -28 15 32 c11 22 20 30 33 27 20 -6 23 4 7 20
-7 7 -6 12 6 17 9 3 13 2 10 -4 -10 -16 8 -12 40 10 17 11 31 20 32 20 2 0 -6
-15 -17 -32z m2260 28 c0 -2 -7 -9 -15 -16 -13 -11 -14 -10 -9 4 5 14 24 23
24 12z m-2355 -36 c3 -5 -1 -10 -10 -10 -9 0 -13 5 -10 10 3 6 8 10 10 10 2 0
7 -4 10 -10z m185 0 c0 -5 -4 -10 -10 -10 -5 0 -10 5 -10 10 0 6 5 10 10 10 6
0 10 -4 10 -10z m70 -39 c0 -5 -11 -8 -25 -8 -14 0 -25 3 -25 8 0 5 11 9 25 9
14 0 25 -4 25 -9z m2060 -17 c0 -8 -5 -12 -10 -9 -6 4 -8 11 -5 16 9 14 15 11
15 -7z m-2135 -4 c-3 -5 -14 -10 -23 -10 -15 0 -15 2 -2 10 20 13 33 13 25 0z
m-34 -32 c11 -21 11 -22 -4 -9 -10 7 -17 17 -17 22 0 15 9 10 21 -13z m126 16
c-3 -3 -12 -4 -19 -1 -8 3 -5 6 6 6 11 1 17 -2 13 -5z m38 -21 c1 -11 -3 -27
-9 -35 -10 -14 -13 -13 -26 0 -13 14 -12 15 3 9 11 -4 17 -2 17 7 0 9 -10 13
-30 12 -32 -2 -32 1 2 19 30 17 41 14 43 -12z m2015 7 c0 -6 -11 -8 -27 -4
-40 10 -41 14 -5 14 18 0 32 -5 32 -10z m-2095 -38 c-2 -3 -12 -1 -22 2 -15 6
-15 9 -3 16 13 8 35 -8 25 -18z m191 -19 c-3 -8 -6 -17 -6 -19 0 -2 -4 -4 -8
-4 -4 0 -9 11 -10 25 -1 18 2 23 14 18 8 -3 13 -12 10 -20z m59 -31 c19 -11
19 -11 -3 -12 -12 0 -25 7 -28 15 -4 8 -10 12 -15 9 -5 -3 -6 2 -3 11 5 13 8
13 18 2 6 -8 20 -19 31 -25z m1675 -12 c0 -12 -7 -20 -17 -20 -15 0 -16 2 -3
10 8 5 11 10 7 10 -5 0 -5 5 -2 10 10 16 15 12 15 -10z m50 -8 c0 -14 -11 -21
-26 -15 -21 8 -17 23 6 23 11 0 20 -4 20 -8z m-1730 -17 c11 -13 10 -14 -4 -9
-9 3 -16 10 -16 15 0 13 6 11 20 -6z m73 -26 c-36 -15 -48 -11 -30 9 10 10 14
23 10 28 -5 5 2 0 15 -11 22 -18 22 -20 5 -26z m1721 32 c3 -5 -5 -11 -18 -13
-17 -4 -23 -1 -19 9 6 15 29 18 37 4z m-1864 -11 c0 -5 -4 -10 -10 -10 -5 0
-10 5 -10 10 0 6 5 10 10 10 6 0 10 -4 10 -10z m224 -24 c-3 -8 -1 -17 4 -20
6 -3 8 -15 5 -26 -5 -21 11 -28 22 -10 4 6 11 7 17 4 6 -4 6 -10 -1 -17 -14
-14 -14 -47 -1 -47 6 0 10 6 8 13 -3 13 3 17 27 17 8 0 15 -8 14 -17 0 -11 -3
-13 -6 -5 -8 21 -25 13 -19 -10 3 -13 3 -18 0 -12 -3 7 -14 10 -24 7 -11 -3
-20 0 -20 6 0 6 -4 11 -10 11 -5 0 -7 -7 -4 -15 4 -8 2 -15 -4 -15 -6 0 -8 -9
-5 -20 6 -24 -23 -39 -40 -20 -9 10 -9 11 1 6 7 -4 15 0 19 10 4 10 2 19 -5
22 -17 5 -15 22 2 22 7 0 19 7 26 15 10 12 7 15 -14 21 -20 5 -25 11 -21 25 4
11 2 19 -4 19 -6 0 -11 -4 -11 -9 0 -4 -11 -7 -25 -6 -14 2 -25 -2 -25 -8 0
-5 -3 -7 -6 -4 -11 10 17 37 37 37 11 0 19 7 19 16 0 10 6 14 15 11 8 -4 17
-2 20 3 9 15 15 12 9 -4z m-159 -41 c12 -1 21 -10 23 -23 2 -11 12 -24 23 -27
10 -4 19 -13 19 -21 0 -19 -16 -18 -24 2 -3 8 -10 13 -14 10 -5 -3 -20 1 -34
8 -28 15 -48 5 -48 -21 0 -17 -8 -16 -26 2 -12 12 -4 22 9 13 6 -5 37 24 37
33 0 5 -12 9 -26 9 -14 0 -23 4 -20 9 4 5 0 12 -6 15 -7 2 5 2 27 -1 22 -3 49
-7 60 -8z m119 -65 c-4 -8 -7 -21 -7 -27 0 -7 -6 -13 -12 -13 -7 0 -17 -10
-23 -22 -8 -18 -11 -19 -11 -6 -1 9 4 20 9 23 6 4 8 11 5 16 -4 5 -1 9 4 9 15
0 14 33 -1 48 -9 9 -5 9 15 0 18 -9 25 -18 21 -28z m-141 -65 c1 -26 -2 -40
-10 -40 -7 0 -20 -11 -30 -24 -15 -23 -15 -24 0 -18 25 9 21 2 -10 -19 -24
-15 -26 -15 -14 -1 7 9 10 17 5 17 -4 0 -3 5 4 12 7 7 12 23 12 36 0 17 4 23
15 18 9 -3 15 0 15 10 0 9 -5 12 -12 8 -9 -6 -9 -3 1 9 7 9 10 25 7 34 -5 13
-4 15 3 7 6 -5 12 -28 14 -49z m357 25 c0 -6 3 -9 8 -9 35 6 44 -15 10 -24
-31 -9 -58 9 -56 37 2 20 5 23 20 15 10 -5 18 -14 18 -19z m-458 -5 c3 -13 1
-22 -3 -19 -9 5 -13 44 -5 44 2 0 6 -11 8 -25z m398 11 c0 -11 -19 -15 -25 -6
-3 5 1 10 9 10 9 0 16 -2 16 -4z m1370 -6 c12 -8 11 -10 -7 -10 -13 0 -23 5
-23 10 0 13 11 13 30 0z m-1450 -20 c0 -5 -4 -10 -10 -10 -5 0 -10 5 -10 10 0
6 5 10 10 10 6 0 10 -4 10 -10z m15 -20 c-3 -5 -12 -10 -18 -10 -7 0 -6 4 3
10 19 12 23 12 15 0z m-185 -9 c0 -6 -4 -13 -10 -16 -5 -3 -10 1 -10 9 0 9 5
16 10 16 6 0 10 -4 10 -9z m298 0 c-2 -5 7 -17 19 -28 24 -21 18 -48 -7 -33
-13 8 -13 10 -1 10 10 0 8 7 -7 23 -24 25 -28 37 -12 37 6 0 9 -4 8 -9z m1376
-7 c9 -22 8 -26 -6 -22 -13 5 -20 38 -8 38 4 0 11 -7 14 -16z m-1247 -13 c10
-15 9 -20 -1 -24 -18 -7 -36 12 -29 29 7 19 16 18 30 -5z m-57 -1 c0 -5 -4
-10 -9 -10 -6 0 -13 5 -16 10 -3 6 1 10 9 10 9 0 16 -4 16 -10z m1245 -11 c-3
-9 -1 -20 5 -24 13 -8 13 -55 0 -55 -5 0 -10 -7 -10 -15 0 -8 4 -15 9 -15 12
0 21 25 21 57 0 15 3 23 7 19 8 -7 9 -12 11 -55 2 -17 5 -21 15 -14 8 6 21 5
37 -3 21 -12 21 -18 -1 -16 -3 1 -6 -6 -6 -14 0 -7 5 -14 11 -14 7 0 7 -3 -1
-11 -15 -15 -59 -1 -71 24 -10 21 -11 20 -17 -10 -4 -17 -14 -34 -22 -38 -11
-4 -14 0 -10 14 3 15 0 17 -17 13 -12 -3 -17 -1 -13 4 5 5 13 10 18 10 5 1 14
2 19 3 17 2 11 19 -16 48 l-26 28 29 5 c27 5 34 15 22 35 -15 26 -16 42 -3 42
9 0 12 -7 9 -18z m-1846 -7 c9 -17 -7 -52 -25 -52 -4 0 -3 5 4 12 16 16 15 45
0 51 -10 4 -10 6 -1 6 7 1 17 -7 22 -17z m1812 1 c13 -16 12 -17 -3 -4 -17 13
-22 21 -14 21 2 0 10 -8 17 -17z m-1571 -5 c0 -4 -4 -8 -9 -8 -6 0 -12 4 -15
8 -3 5 1 9 9 9 8 0 15 -4 15 -9z m1547 -37 c-1 -26 -6 -37 -14 -34 -7 3 -13
11 -13 18 0 7 -3 20 -6 28 -3 10 2 17 13 20 10 3 19 5 20 6 1 0 1 -16 0 -38z
m-1573 20 c3 -5 -3 -11 -13 -14 -14 -3 -18 -1 -14 9 6 16 19 18 27 5z m311
-10 c9 -16 -9 -20 -23 -5 -10 12 -10 14 2 14 8 0 17 -4 21 -9z m-520 -41 c3
-5 0 -19 -8 -30 -14 -20 -15 -20 -19 10 -4 30 13 43 27 20z m85 -10 c0 -11 -7
-20 -15 -20 -13 0 -14 4 -5 20 6 11 13 20 15 20 3 0 5 -9 5 -20z m1665 -20 c0
-13 -7 -26 -15 -28 -13 -5 -13 -3 -1 11 11 14 11 20 0 34 -12 14 -12 16 1 11
8 -2 15 -15 15 -28z m-1275 5 c0 -2 -7 -5 -15 -9 -9 -3 -15 0 -15 9 0 9 6 12
15 9 8 -4 15 -7 15 -9z m1220 -35 c0 -5 -4 -10 -10 -10 -5 0 -10 5 -10 10 0 6
5 10 10 10 6 0 10 -4 10 -10z m-80 -30 c0 -5 -2 -10 -4 -10 -3 0 -8 5 -11 10
-3 6 -1 10 4 10 6 0 11 -4 11 -10z m-575 -20 c3 -6 -1 -7 -9 -4 -18 7 -21 14
-7 14 6 0 13 -4 16 -10z m105 -11 c0 -6 -4 -7 -10 -4 -5 3 -10 11 -10 16 0 6
5 7 10 4 6 -3 10 -11 10 -16z m-63 -11 c-3 -8 -6 -5 -6 6 -1 11 2 17 5 13 3
-3 4 -12 1 -19z m-67 -7 c0 -6 -4 -13 -10 -16 -5 -3 -10 1 -10 9 0 9 5 16 10
16 6 0 10 -4 10 -9z m410 -1 c0 -5 -2 -10 -4 -10 -3 0 -8 5 -11 10 -3 6 -1 10
4 10 6 0 11 -4 11 -10z m-260 -9 c0 -6 -4 -13 -10 -16 -5 -3 -10 1 -10 9 0 9
5 16 10 16 6 0 10 -4 10 -9z m84 -9 c6 -9 -29 -42 -44 -42 -13 0 -13 6 2 30
13 21 33 26 42 12z m156 -22 c-18 -11 -24 -6 -16 16 5 14 9 15 19 5 9 -9 9
-14 -3 -21z m-270 10 c0 -5 -2 -10 -4 -10 -3 0 -8 5 -11 10 -3 6 -1 10 4 10 6
0 11 -4 11 -10z m475 -20 c-4 -6 -1 -17 5 -25 9 -11 9 -15 1 -15 -6 0 -11 5
-11 10 0 6 -8 10 -17 10 -16 1 -16 2 1 15 23 18 30 19 21 5z m-155 -20 c0 -5
-5 -10 -11 -10 -5 0 -7 5 -4 10 3 6 8 10 11 10 2 0 4 -4 4 -10z m133 -17 c-7
-2 -19 -2 -25 0 -7 3 -2 5 12 5 14 0 19 -2 13 -5z m-766 -53 c-3 -21 -17 -40
-17 -22 0 13 11 42 16 42 2 0 3 -9 1 -20z m53 -34 c0 -3 -4 -8 -10 -11 -5 -3
-10 -1 -10 4 0 6 5 11 10 11 6 0 10 -2 10 -4z m40 -32 c0 -8 4 -14 9 -14 5 0
11 -7 14 -15 5 -12 2 -12 -18 -3 -16 7 -21 16 -17 27 5 13 3 14 -10 4 -8 -7
-18 -10 -21 -6 -8 8 25 33 35 27 5 -3 8 -12 8 -20z m-72 -39 c-3 -3 -9 2 -12
12 -6 14 -5 15 5 6 7 -7 10 -15 7 -18z m182 1 c0 -11 -33 -36 -41 -31 -16 10
-10 23 14 28 12 2 23 5 25 6 1 0 2 -1 2 -3z"/>
<path d="M1792 4144 c-7 -8 -8 -14 -3 -14 10 0 25 19 20 25 -2 1 -10 -3 -17
-11z"/>
<path d="M1821 4137 c-11 -13 -21 -30 -21 -38 0 -12 2 -12 10 1 7 12 12 12 22
2 18 -18 24 -15 26 17 3 39 -10 46 -37 18z"/>
<path d="M2815 4101 c-3 -5 -2 -12 3 -15 5 -3 9 1 9 9 0 17 -3 19 -12 6z"/>
<path d="M4955 2720 c-3 -6 1 -7 9 -4 18 7 21 14 7 14 -6 0 -13 -4 -16 -10z"/>
<path d="M1935 1220 c-3 -6 1 -7 9 -4 18 7 21 14 7 14 -6 0 -13 -4 -16 -10z"/>
<path d="M2335 4450 c3 -5 8 -10 11 -10 2 0 4 5 4 10 0 6 -5 10 -11 10 -5 0
-7 -4 -4 -10z"/>
<path d="M4618 4453 c6 -2 18 -2 25 0 6 3 1 5 -13 5 -14 0 -19 -2 -12 -5z"/>
<path d="M4683 4432 c15 -9 39 -39 53 -67 14 -27 22 -39 18 -25 -15 58 -58
111 -89 110 -5 0 3 -8 18 -18z"/>
<path d="M1670 4420 c-10 -6 -11 -10 -2 -10 17 0 15 -14 -8 -40 -11 -13 -20
-28 -20 -33 0 -11 -15 0 -15 11 -1 14 -26 52 -34 52 -17 0 1 -38 30 -66 16
-15 29 -35 29 -45 0 -14 -8 -16 -42 -13 -41 3 -41 3 -8 -4 47 -11 63 -21 56
-39 -3 -8 -1 -11 4 -8 6 3 10 18 10 32 0 21 3 24 24 19 21 -5 23 -3 18 21 -3
16 -1 24 6 20 13 -9 22 15 22 57 0 49 -32 70 -70 46z m40 -10 c0 -5 -4 -10
-10 -10 -5 0 -10 5 -10 10 0 6 5 10 10 10 6 0 10 -4 10 -10z m8 -32 c18 -18
14 -45 -8 -51 -15 -4 -22 1 -26 18 -10 39 10 57 34 33z"/>
<path d="M1691 4354 c0 -11 3 -14 6 -6 3 7 2 16 -1 19 -3 4 -6 -2 -5 -13z"/>
<path d="M3504 4416 c11 -9 24 -16 30 -16 12 0 7 5 -24 19 -24 11 -24 11 -6
-3z"/>
<path d="M2656 4407 c3 -10 9 -15 12 -12 3 3 0 11 -7 18 -10 9 -11 8 -5 -6z"/>
<path d="M5107 4403 c-3 -5 1 -14 9 -21 12 -11 14 -9 14 8 0 20 -14 27 -23 13z"/>
<path d="M3475 4390 c-4 -6 15 -20 42 -33 26 -12 48 -29 48 -37 0 -14 32 -16
45 -3 5 5 -23 28 -44 37 -7 3 -6 8 4 15 12 8 12 11 -3 17 -12 4 -23 0 -33 -12
-9 -11 -13 -14 -9 -7 3 7 -3 17 -14 22 -24 14 -28 14 -36 1z"/>
<path d="M4220 4390 c-10 -7 -11 -10 -2 -10 6 0 11 -4 10 -9 -4 -13 3 -14 42
-3 30 9 31 10 10 11 -15 1 -30 5 -36 11 -6 6 -15 6 -24 0z"/>
<path d="M5158 4383 c7 -3 16 -2 19 1 4 3 -2 6 -13 5 -11 0 -14 -3 -6 -6z"/>
<path d="M5410 4371 c-12 -24 -13 -31 -1 -31 5 0 11 11 13 25 6 30 2 32 -12 6z"/>
<path d="M2620 4361 c-6 -12 -7 -21 -1 -21 10 0 24 30 17 37 -2 3 -9 -5 -16
-16z"/>
<path d="M5345 4369 c-4 -6 -5 -12 -2 -15 2 -3 7 2 10 11 7 17 1 20 -8 4z"/>
<path d="M1840 4356 c0 -8 4 -17 9 -20 5 -4 7 3 4 14 -6 23 -13 26 -13 6z"/>
<path d="M3602 4356 c7 -8 15 -12 17 -11 5 6 -10 25 -20 25 -5 0 -4 -6 3 -14z"/>
<path d="M4017 4350 c3 -11 7 -20 9 -20 2 0 4 9 4 20 0 11 -4 20 -9 20 -5 0
-7 -9 -4 -20z"/>
<path d="M5362 4331 c-15 -49 -15 -46 7 -48 24 -2 47 22 31 32 -5 3 -10 1 -10
-4 0 -6 -4 -11 -10 -11 -5 0 -10 9 -10 19 0 11 5 23 10 26 12 8 13 25 2 25 -5
0 -14 -17 -20 -39z"/>
<path d="M1920 4342 c0 -12 3 -12 15 -2 8 7 15 13 15 15 0 1 -7 2 -15 2 -8 0
-15 -7 -15 -15z"/>
<path d="M2780 4349 c0 -5 5 -7 10 -4 6 3 10 8 10 11 0 2 -4 4 -10 4 -5 0 -10
-5 -10 -11z"/>
<path d="M3926 4352 c-2 -4 4 -8 14 -8 10 0 16 4 14 8 -3 4 -9 8 -14 8 -5 0
-11 -4 -14 -8z"/>
<path d="M5080 4351 c-8 -6 -18 -8 -22 -5 -12 8 -49 -16 -43 -27 4 -5 -9 -10
-27 -10 -32 -2 -32 -2 6 -8 22 -3 41 -12 44 -19 3 -9 -4 -11 -25 -7 -25 6 -26
5 -9 -6 14 -9 24 -9 37 -1 13 9 19 8 23 -4 9 -25 8 -26 -24 -19 -23 5 -30 3
-30 -9 0 -9 4 -16 10 -16 5 0 15 -11 22 -25 15 -28 46 -19 35 10 -4 9 -11 14
-16 10 -5 -3 -12 -1 -16 5 -8 13 11 13 52 -2 30 -11 33 -15 28 -40 -5 -23 -4
-27 9 -22 9 3 14 10 11 14 -3 4 2 11 11 14 8 3 12 2 9 -4 -3 -6 -1 -10 4 -10
6 0 11 8 11 18 0 11 10 27 21 38 22 19 22 19 14 -6 -6 -21 -5 -23 6 -12 11 10
11 17 2 32 -10 16 -9 20 5 24 19 6 25 46 7 43 -5 -1 -9 3 -8 10 4 18 -36 26
-55 12 -14 -11 -15 -11 -4 1 19 22 14 30 -19 30 -24 0 -30 -3 -25 -16 4 -10 2
-14 -6 -11 -7 2 -12 10 -10 16 3 13 -8 14 -28 2z m35 -41 c-3 -5 -11 -10 -16
-10 -6 0 -7 5 -4 10 3 6 11 10 16 10 6 0 7 -4 4 -10z m50 -8 c-3 -3 -11 0 -18
7 -9 10 -8 11 6 5 10 -3 15 -9 12 -12z m35 -39 c0 -12 -3 -14 -8 -6 -5 8 -13
9 -22 3 -22 -14 -30 -12 -24 5 9 22 54 20 54 -2z m-28 -45 c-8 -8 -9 -4 -5 13
4 13 8 18 11 10 2 -7 -1 -18 -6 -23z m-42 12 c0 -5 -4 -10 -9 -10 -6 0 -13 5
-16 10 -3 6 1 10 9 10 9 0 16 -4 16 -10z"/>
<path d="M3730 4339 c0 -5 5 -7 10 -4 6 3 10 8 10 11 0 2 -4 4 -10 4 -5 0 -10
-5 -10 -11z"/>
<path d="M4535 4330 c3 -5 8 -10 11 -10 2 0 4 5 4 10 0 6 -5 10 -11 10 -5 0
-7 -4 -4 -10z"/>
<path d="M2245 4320 c-3 -5 -1 -10 4 -10 6 0 11 5 11 10 0 6 -2 10 -4 10 -3 0
-8 -4 -11 -10z"/>
<path d="M1550 4310 c0 -5 -11 -20 -25 -34 -14 -14 -25 -33 -24 -43 0 -12 6
-7 15 14 7 17 22 34 32 37 18 6 27 36 10 36 -4 0 -8 -4 -8 -10z"/>
<path d="M2537 4295 c3 -8 9 -12 14 -9 12 7 11 11 -5 17 -10 4 -13 1 -9 -8z"/>
<path d="M4761 4294 c0 -11 3 -14 6 -6 3 7 2 16 -1 19 -3 4 -6 -2 -5 -13z"/>
<path d="M4895 4285 c-24 -11 -26 -14 -9 -14 11 -1 29 6 40 14 24 18 8 18 -31
0z"/>
<path d="M2475 4270 c3 -5 8 -10 11 -10 2 0 4 5 4 10 0 6 -5 10 -11 10 -5 0
-7 -4 -4 -10z"/>
<path d="M2816 4261 c-4 -7 -5 -15 -2 -18 9 -9 19 4 14 18 -4 11 -6 11 -12 0z"/>
<path d="M1538 4253 c7 -3 16 -2 19 1 4 3 -2 6 -13 5 -11 0 -14 -3 -6 -6z"/>
<path d="M1580 4250 c8 -5 20 -10 25 -10 6 0 3 5 -5 10 -8 5 -19 10 -25 10 -5
0 -3 -5 5 -10z"/>
<path d="M2289 4228 c-9 -32 -7 -47 6 -42 18 7 20 24 3 24 -9 0 -8 4 2 10 10
6 11 10 3 10 -7 0 -13 -1 -14 -2z"/>
<path d="M2335 4211 c-3 -5 -1 -12 5 -16 5 -3 10 -1 10 5 0 6 5 8 10 5 6 -3
10 -1 10 4 0 13 -27 14 -35 2z"/>
<path d="M2581 4204 c0 -11 3 -14 6 -6 3 7 2 16 -1 19 -3 4 -6 -2 -5 -13z"/>
<path d="M3492 4190 c1 -16 7 -30 13 -30 7 0 12 14 12 30 0 19 -6 30 -14 30
-9 0 -13 -10 -11 -30z"/>
<path d="M4800 4195 c0 -27 17 -42 31 -28 12 12 2 40 -17 47 -10 4 -14 -2 -14
-19z"/>
<path d="M3100 4195 c-11 -13 -8 -15 16 -15 22 0 25 3 14 9 -10 7 -1 11 30 14
l45 4 -46 1 c-31 1 -51 -3 -59 -13z"/>
<path d="M3549 4203 c-11 -3 -15 -11 -12 -24 7 -24 19 -24 33 0 17 32 15 34
-21 24z"/>
<path d="M740 4185 c0 -8 34 -45 42 -45 16 0 7 30 -11 40 -21 11 -31 13 -31 5z"/>
<path d="M2497 4166 c-4 -10 -1 -13 8 -9 8 3 12 9 9 14 -7 12 -11 11 -17 -5z"/>
<path d="M2550 4170 c0 -5 5 -10 10 -10 6 0 10 5 10 10 0 6 -4 10 -10 10 -5 0
-10 -4 -10 -10z"/>
<path d="M824 4143 c14 -14 29 -23 33 -20 9 10 -27 47 -45 47 -10 0 -6 -8 12
-27z"/>
<path d="M3130 4156 c0 -2 8 -10 18 -17 15 -13 16 -12 3 4 -13 16 -21 21 -21
13z"/>
<path d="M5191 4144 c0 -11 3 -14 6 -6 3 7 2 16 -1 19 -3 4 -6 -2 -5 -13z"/>
<path d="M2273 4125 c0 -14 3 -28 8 -31 5 -3 9 6 9 20 0 14 -4 27 -9 30 -5 3
-8 -6 -8 -19z"/>
<path d="M3514 4139 c-3 -6 -1 -16 5 -22 8 -8 11 -5 11 11 0 24 -5 28 -16 11z"/>
<path d="M794 4132 c-14 -9 -29 -66 -15 -58 5 4 7 -3 4 -15 -5 -19 -4 -20 16
-10 26 14 27 27 4 40 -10 6 -13 11 -7 11 7 0 14 9 17 20 5 21 0 25 -19 12z"/>
<path d="M2201 4099 c0 -19 4 -43 9 -54 6 -13 7 -2 3 30 -7 59 -13 72 -12 24z"/>
<path d="M884 4095 c7 -37 16 -44 16 -12 0 14 -5 29 -10 32 -7 4 -9 -3 -6 -20z"/>
<path d="M2322 4089 c-24 -17 -41 -33 -38 -36 3 -3 12 0 21 7 14 11 19 7 16
-12 -2 -15 14 -8 26 11 10 16 9 18 -8 14 -28 -8 -23 2 14 26 17 11 28 21 22
20 -5 0 -29 -14 -53 -30z"/>
<path d="M3360 4091 c-19 -16 -38 -27 -42 -25 -4 3 -5 -2 -2 -10 8 -20 24 -21
24 -1 0 8 5 15 11 15 5 0 7 -4 4 -10 -3 -5 -4 -10 0 -10 3 0 10 11 15 25 5 14
15 24 21 23 6 -2 14 3 16 10 7 20 -10 14 -47 -17z"/>
<path d="M817 4103 c-3 -5 13 -27 35 -49 36 -35 40 -36 33 -14 -4 14 -8 25 -9
25 0 0 -13 10 -27 23 -15 13 -29 20 -32 15z"/>
<path d="M5205 4090 c3 -5 8 -10 11 -10 2 0 4 5 4 10 0 6 -5 10 -11 10 -5 0
-7 -4 -4 -10z"/>
<path d="M4956 4053 c-10 -11 -7 -45 4 -38 6 4 8 10 5 15 -3 4 0 10 7 12 8 3
9 6 1 11 -5 4 -13 4 -17 0z"/>
<path d="M1547 4033 c-4 -3 -7 -13 -7 -22 1 -13 3 -13 11 2 11 19 8 33 -4 20z"/>
<path d="M3090 4025 c0 -8 7 -15 15 -15 8 0 15 7 15 15 0 8 -7 15 -15 15 -8 0
-15 -7 -15 -15z"/>
<path d="M780 4020 c0 -12 28 -25 36 -17 3 3 -4 10 -15 17 -15 7 -21 7 -21 0z"/>
<path d="M837 4023 c-3 -5 5 -20 18 -31 14 -12 25 -26 25 -32 0 -5 5 -10 10
-10 17 0 11 14 -18 50 -16 19 -31 29 -35 23z"/>
<path d="M4915 4000 c7 -11 45 -20 45 -10 0 4 -11 10 -25 12 -13 3 -22 2 -20
-2z"/>
<path d="M4990 4003 c0 -12 29 -50 30 -39 0 5 8 2 18 -6 24 -21 50 -29 57 -18
4 6 15 6 28 -2 20 -10 21 -10 8 5 -7 10 -28 17 -45 18 -25 0 -27 2 -12 8 19 7
19 8 -2 13 -11 3 -22 2 -24 -4 -2 -5 -16 0 -31 12 -15 12 -27 17 -27 13z"/>
<path d="M5133 3972 l38 -17 -21 -23 c-12 -12 -18 -27 -14 -34 4 -7 3 -8 -4
-4 -7 4 -12 2 -12 -3 0 -6 -4 -11 -10 -11 -11 0 -9 22 3 31 5 3 2 9 -7 12 -9
4 -16 2 -16 -3 0 -5 -13 -5 -31 0 -32 10 -33 9 -43 -46 -5 -29 -3 -31 29 -29
19 0 40 6 46 12 9 9 17 5 35 -14 16 -17 24 -21 24 -11 0 7 -5 19 -11 25 -8 8
-8 13 0 17 6 4 11 16 11 26 0 10 4 20 9 22 4 2 11 12 15 24 5 16 0 23 -19 32
-14 7 -34 12 -43 11 -9 0 0 -8 21 -17z"/>
<path d="M1656 3955 c-3 -8 -1 -15 4 -15 6 0 10 7 10 15 0 8 -2 15 -4 15 -2 0
-6 -7 -10 -15z"/>
<path d="M900 3931 c0 -6 4 -13 10 -16 6 -3 7 1 4 9 -7 18 -14 21 -14 7z"/>
<path d="M940 3905 c0 -8 2 -15 4 -15 2 0 11 -3 20 -6 10 -4 16 -1 16 9 0 8
-7 18 -16 21 -22 9 -24 8 -24 -9z"/>
<path d="M915 3880 c-6 -10 1 -14 18 -11 5 1 6 -2 3 -7 -3 -5 6 -20 19 -32 21
-20 25 -21 25 -6 0 9 -4 15 -9 12 -5 -3 -12 5 -15 18 -6 26 -32 41 -41 26z"/>
<path d="M1002 3882 c-7 -5 -12 -22 -11 -38 1 -16 -2 -37 -6 -46 -12 -29 11
-21 39 13 30 35 30 38 12 62 -15 19 -16 20 -34 9z m23 -38 c-23 -17 -32 -10
-15 11 7 8 17 12 23 8 6 -4 3 -11 -8 -19z"/>
<path d="M1095 3880 c4 -6 2 -23 -6 -36 -7 -13 -9 -27 -6 -31 8 -8 57 36 57
51 0 6 -5 4 -10 -4 -9 -15 -11 -13 -14 12 0 6 -7 13 -15 16 -9 3 -11 0 -6 -8z"/>
<path d="M1166 3831 c-11 -12 -14 -21 -7 -26 6 -3 11 -1 11 6 0 6 8 18 18 25
9 7 12 14 6 14 -6 0 -19 -9 -28 -19z"/>
<path d="M850 3750 c0 -5 7 -7 15 -4 8 4 15 8 15 10 0 2 -7 4 -15 4 -8 0 -15
-4 -15 -10z"/>
<path d="M914 3736 c21 -18 26 -29 21 -45 -5 -16 -3 -20 9 -15 9 3 16 13 16
21 0 8 5 11 13 7 6 -4 -3 7 -22 25 -19 17 -42 31 -50 31 -11 -1 -7 -8 13 -24z"/>
<path d="M775 3726 c17 -14 35 -26 40 -26 11 1 -20 27 -50 41 -11 6 -6 -1 10
-15z"/>
<path d="M1175 3740 c-3 -5 1 -10 9 -10 9 0 16 5 16 10 0 6 -4 10 -9 10 -6 0
-13 -4 -16 -10z"/>
<path d="M890 3701 c0 -5 7 -11 15 -15 9 -3 15 0 15 9 0 8 -7 15 -15 15 -8 0
-15 -4 -15 -9z"/>
<path d="M5042 3656 c10 -7 14 -17 10 -22 -4 -4 1 -2 10 5 22 16 14 31 -15 31
-20 -1 -21 -2 -5 -14z"/>
<path d="M5265 3500 c-4 -7 -1 -17 6 -22 11 -8 10 -9 -3 -4 -18 5 -43 -25 -31
-38 10 -10 25 -7 18 3 -6 11 30 25 43 17 5 -3 17 1 28 8 15 12 16 16 5 30 -16
19 -41 21 -41 4 0 -10 -3 -9 -9 1 -7 10 -10 10 -16 1z"/>
<path d="M5148 3455 c-13 -10 -23 -45 -13 -45 3 0 10 11 15 25 6 16 15 23 24
19 8 -3 22 -1 32 4 13 7 10 9 -14 8 -18 0 -37 -5 -44 -11z"/>
<path d="M966 3442 c-3 -5 1 -9 9 -9 8 0 12 4 9 9 -3 4 -7 8 -9 8 -2 0 -6 -4
-9 -8z"/>
<path d="M1070 3440 c18 -12 30 -13 30 -2 0 4 -10 9 -22 9 -18 2 -20 0 -8 -7z"/>
<path d="M530 3420 c0 -6 7 -13 15 -16 8 -4 13 -10 10 -14 -8 -13 37 -62 47
-52 7 7 -1 24 -23 51 -32 40 -49 51 -49 31z"/>
<path d="M1050 3410 c-26 -5 -31 -8 -18 -14 9 -4 28 -1 45 8 30 16 27 17 -27
6z"/>
<path d="M820 3346 c0 -9 7 -12 20 -9 11 3 20 9 20 14 0 5 -9 9 -20 9 -11 0
-20 -6 -20 -14z"/>
<path d="M1036 3347 c-14 -10 -12 -12 19 -13 19 0 34 0 33 0 -2 1 -10 7 -19
14 -12 9 -19 9 -33 -1z"/>
<path d="M776 3332 c6 -4 14 -14 17 -22 4 -10 6 -8 6 8 1 15 -5 22 -16 22 -11
0 -14 -3 -7 -8z"/>
<path d="M993 3324 c-3 -9 -15 -20 -27 -25 -18 -7 -17 -8 8 -5 21 2 30 8 33
24 3 26 -5 29 -14 6z"/>
<path d="M847 3316 c-3 -8 1 -17 9 -20 9 -3 12 -10 9 -16 -3 -5 -1 -10 4 -10
15 0 14 13 -1 29 -14 15 -11 14 35 -4 24 -10 22 12 -2 25 -27 14 -48 13 -54
-4z"/>
<path d="M5400 3280 c0 -5 5 -10 11 -10 5 0 7 5 4 10 -3 6 -8 10 -11 10 -2 0
-4 -4 -4 -10z"/>
<path d="M774 3264 c18 -17 23 -18 23 -1 0 7 -9 14 -19 14 -16 2 -16 0 -4 -13z"/>
<path d="M890 3270 c0 -5 -11 -10 -24 -10 -13 0 -27 -7 -30 -16 -8 -22 -5 -24
36 -30 18 -3 39 -7 46 -9 6 -2 12 2 12 10 0 8 -7 15 -15 15 -8 0 -15 8 -14 18
0 10 3 12 6 4 2 -6 9 -10 13 -7 13 8 0 35 -16 35 -8 0 -14 -4 -14 -10z"/>
<path d="M5331 3153 c7 -10 14 -19 15 -21 1 -2 18 0 38 3 20 4 33 11 30 16 -3
5 -13 5 -24 -1 -25 -13 -43 -13 -34 2 4 7 3 8 -4 4 -7 -4 -12 -2 -12 3 0 6 -5
11 -11 11 -8 0 -7 -6 2 -17z"/>
<path d="M5428 3163 c6 -2 18 -2 25 0 6 3 1 5 -13 5 -14 0 -19 -2 -12 -5z"/>
<path d="M935 3140 c-3 -5 -1 -10 4 -10 6 0 11 5 11 10 0 6 -2 10 -4 10 -3 0
-8 -4 -11 -10z"/>
<path d="M806 3103 c-3 -3 -1 -14 5 -24 11 -22 46 -26 46 -6 0 14 -42 38 -51
30z"/>
<path d="M5328 3103 c6 -2 18 -2 25 0 6 3 1 5 -13 5 -14 0 -19 -2 -12 -5z"/>
<path d="M850 2991 c0 -11 4 -21 9 -21 18 0 21 18 6 30 -13 10 -15 9 -15 -9z"/>
<path d="M5150 2990 c0 -11 6 -20 14 -20 9 0 12 7 9 20 -3 11 -9 20 -14 20 -5
0 -9 -9 -9 -20z"/>
<path d="M5135 2950 c-3 -5 -1 -10 4 -10 6 0 11 5 11 10 0 6 -2 10 -4 10 -3 0
-8 -4 -11 -10z"/>
<path d="M645 2940 c-3 -5 -1 -10 5 -10 6 0 8 -5 5 -11 -4 -6 2 -19 13 -30 22
-20 44 -7 23 14 -20 20 -12 31 9 12 20 -18 21 -18 14 1 -12 32 -55 47 -69 24z"/>
<path d="M5157 2910 c-3 -11 -1 -20 4 -20 5 0 9 9 9 20 0 11 -2 20 -4 20 -2 0
-6 -9 -9 -20z"/>
<path d="M665 2861 c3 -5 -5 -11 -17 -13 -19 -3 -20 -4 -6 -10 9 -4 24 -1 33
6 17 12 17 13 1 19 -9 4 -14 3 -11 -2z"/>
<path d="M5030 2831 c0 -11 -3 -26 -6 -35 -9 -22 12 -20 36 4 23 23 17 50 -11
50 -12 0 -19 -7 -19 -19z"/>
<path d="M790 2829 c0 -5 5 -7 10 -4 6 3 10 8 10 11 0 2 -4 4 -10 4 -5 0 -10
-5 -10 -11z"/>
<path d="M670 2802 c0 -7 -12 -24 -27 -37 -20 -17 -23 -24 -12 -25 24 0 63 50
50 63 -8 8 -11 8 -11 -1z"/>
<path d="M5236 2771 c5 -5 18 -11 28 -13 26 -4 56 -47 59 -85 1 -18 5 -29 9
-25 9 9 -7 71 -24 95 -7 9 -28 21 -47 27 -19 5 -30 6 -25 1z"/>
<path d="M764 2746 c-3 -9 -11 -16 -18 -16 -6 0 -17 -12 -23 -27 -14 -29 -4
-44 26 -38 9 2 25 4 35 4 21 1 17 11 -6 15 -35 5 -40 18 -17 42 12 13 20 27
16 30 -4 4 -9 -1 -13 -10z m-13 -63 c13 -16 12 -17 -3 -4 -10 7 -18 15 -18 17
0 8 8 3 21 -13z"/>
<path d="M796 2744 c-18 -17 -20 -24 -8 -24 4 0 13 9 20 20 15 24 9 26 -12 4z"/>
<path d="M5085 2700 c3 -5 8 -10 11 -10 2 0 4 5 4 10 0 6 -5 10 -11 10 -5 0
-7 -4 -4 -10z"/>
<path d="M5355 2679 c-4 -6 -5 -12 -2 -15 2 -3 7 2 10 11 7 17 1 20 -8 4z"/>
<path d="M775 2650 c-3 -5 -3 -10 2 -10 4 0 1 -4 -7 -10 -8 -5 -12 -11 -9 -15
3 -3 14 3 23 14 10 11 13 21 7 25 -5 4 -12 2 -16 -4z"/>
<path d="M5135 2600 c-3 -5 -1 -10 4 -10 6 0 11 5 11 10 0 6 -2 10 -4 10 -3 0
-8 -4 -11 -10z"/>
<path d="M5241 2594 c0 -11 3 -14 6 -6 3 7 2 16 -1 19 -3 4 -6 -2 -5 -13z"/>
<path d="M488 2553 c6 -2 18 -2 25 0 6 3 1 5 -13 5 -14 0 -19 -2 -12 -5z"/>
<path d="M5166 2551 c-4 -5 1 -8 9 -7 21 3 31 16 12 16 -9 0 -18 -4 -21 -9z"/>
<path d="M5129 2523 c-13 -16 -12 -17 4 -4 9 7 17 15 17 17 0 8 -8 3 -21 -13z"/>
<path d="M856 2515 c-9 -26 -7 -32 5 -12 6 10 9 21 6 23 -2 3 -7 -2 -11 -11z"/>
<path d="M949 2465 c-1 -3 -2 -8 -3 -12 -1 -5 -5 -14 -9 -20 -5 -8 -4 -13 2
-13 6 0 11 3 12 8 0 4 2 15 4 25 3 15 -3 26 -6 12z"/>
<path d="M973 2456 c0 -6 6 -17 14 -24 10 -10 13 -9 13 7 0 10 -6 21 -13 24
-8 3 -14 0 -14 -7z"/>
<path d="M736 2393 c-6 -14 -5 -15 5 -6 7 7 10 15 7 18 -3 3 -9 -2 -12 -12z"/>
<path d="M966 2385 c4 -8 10 -12 15 -9 14 8 10 24 -6 24 -9 0 -12 -6 -9 -15z"/>
<path d="M5221 2376 c-9 -10 -8 -15 3 -19 9 -4 18 -1 22 4 4 7 10 7 17 0 6 -6
15 -11 21 -11 5 0 6 3 3 7 -4 3 -1 13 6 22 10 14 10 14 -5 3 -12 -10 -22 -11
-36 -3 -15 8 -23 7 -31 -3z"/>
<path d="M5182 2369 c2 -7 -8 -18 -21 -25 -19 -10 -20 -13 -8 -20 16 -10 42
-55 39 -67 -1 -5 2 -5 8 -2 7 4 9 19 5 36 -5 24 -3 30 15 37 20 7 20 9 -10 30
-17 13 -29 17 -28 11z m23 -39 c-3 -5 -10 -10 -16 -10 -5 0 -9 5 -9 10 0 6 7
10 16 10 8 0 12 -4 9 -10z"/>
<path d="M933 2355 c-10 -7 -15 -16 -12 -20 9 -8 59 5 59 15 0 15 -28 18 -47
5z"/>
<path d="M4990 2340 c-9 -6 -10 -10 -3 -10 6 0 15 5 18 10 8 12 4 12 -15 0z"/>
<path d="M5264 2305 c24 -36 19 -50 -7 -21 -25 26 -37 25 -37 -3 0 -14 2 -14
10 -1 7 11 10 11 10 2 0 -7 4 -11 8 -8 4 2 13 -4 20 -15 10 -16 9 -19 -3 -19
-8 0 -15 -4 -15 -10 0 -5 7 -10 15 -10 11 0 15 -11 15 -39 0 -47 -15 -55 -50
-29 -41 32 -100 68 -110 68 -5 0 -12 9 -15 20 -7 21 -25 28 -25 9 0 -5 -4 -8
-9 -5 -11 7 -23 -22 -15 -35 7 -12 -9 -12 -21 0 -6 5 -21 12 -35 16 -22 7 -23
6 -11 -9 7 -9 20 -16 27 -16 7 0 11 -6 8 -14 -3 -8 0 -17 5 -21 6 -3 9 -10 6
-15 -8 -13 14 -23 28 -12 7 6 24 10 39 9 21 -2 24 -5 15 -16 -8 -9 -2 -8 15 3
28 18 29 42 2 32 -8 -3 -14 1 -14 9 0 18 1 18 35 5 14 -5 23 -14 20 -20 -3 -5
1 -10 9 -10 9 0 16 -4 16 -9 0 -13 -30 -22 -43 -14 -7 3 -9 3 -5 -2 10 -11
-11 -35 -30 -35 -13 0 -12 3 4 15 14 11 9 10 -18 -2 -58 -29 -26 -37 47 -13
36 12 79 20 95 18 37 -6 55 25 45 73 -7 34 -7 34 13 16 14 -13 22 -15 27 -7 4
6 4 14 1 17 -3 4 -6 0 -7 -8 0 -8 -4 -6 -9 6 -14 32 -12 40 15 69 28 30 31 41
13 52 -6 4 -9 3 -5 -2 3 -5 -1 -18 -9 -29 -14 -19 -15 -19 -40 8 -31 34 -52
36 -30 2z m-169 -135 c-3 -5 -12 -10 -18 -10 -7 0 -6 4 3 10 19 12 23 12 15 0z
m140 -30 c3 -6 -6 -15 -20 -20 -36 -14 -38 -13 -17 9 20 22 28 25 37 11z"/>
<path d="M5125 2300 c-5 -9 -4 -11 3 -6 7 4 12 1 12 -9 0 -19 22 -16 26 3 2 8
0 8 -3 2 -3 -7 -10 -5 -17 6 -10 13 -15 14 -21 4z"/>
<path d="M5000 2290 c0 -5 5 -10 10 -10 6 0 10 5 10 10 0 6 -4 10 -10 10 -5 0
-10 -4 -10 -10z"/>
<path d="M5038 2273 c7 -3 16 -2 19 1 4 3 -2 6 -13 5 -11 0 -14 -3 -6 -6z"/>
<path d="M922 2221 c4 -13 18 -16 19 -4 0 4 -5 9 -11 12 -7 2 -11 -2 -8 -8z"/>
<path d="M5006 2147 c3 -10 9 -15 12 -12 3 3 0 11 -7 18 -10 9 -11 8 -5 -6z"/>
<path d="M4910 2129 c0 -5 -6 -9 -14 -9 -11 0 -10 -8 5 -37 15 -28 16 -39 6
-45 -7 -5 -3 -7 12 -6 13 2 26 -3 29 -11 3 -10 -1 -12 -18 -8 -16 4 -24 1 -27
-14 -3 -10 -12 -19 -19 -19 -8 0 -14 -3 -14 -7 0 -10 109 -67 116 -61 7 8 -7
38 -19 38 -5 0 0 8 11 19 12 10 19 21 15 25 -3 3 -1 6 5 6 6 0 9 7 5 17 -4 11
-3 14 6 9 6 -4 9 -16 6 -27 -5 -15 -1 -19 17 -19 50 0 65 45 18 57 -11 3 -18
9 -15 13 3 5 -3 6 -13 3 -12 -3 -19 1 -19 11 0 9 9 16 21 17 16 0 13 4 -11 12
-18 7 -41 19 -50 27 -21 17 -53 22 -53 9z"/>
<path d="M1027 2113 c-4 -3 -7 -13 -7 -21 0 -18 13 -7 16 13 2 17 1 18 -9 8z"/>
<path d="M4831 2104 c0 -11 3 -14 6 -6 3 7 2 16 -1 19 -3 4 -6 -2 -5 -13z"/>
<path d="M4850 1950 c0 -5 7 -10 16 -10 8 0 12 5 9 10 -3 6 -10 10 -16 10 -5
0 -9 -4 -9 -10z"/>
<path d="M727 1923 c-15 -17 -15 -22 -3 -38 8 -11 12 -25 9 -32 -3 -7 0 -13 7
-13 6 0 9 4 6 9 -3 5 0 14 7 19 9 8 16 6 25 -9 7 -10 8 -19 3 -19 -5 0 -12 6
-14 13 -3 7 -6 5 -6 -5 -1 -24 26 -23 39 2 8 16 7 26 -7 45 -10 13 -23 25 -30
25 -6 0 -13 5 -15 11 -2 6 -11 2 -21 -8z"/>
<path d="M1229 1924 c-12 -14 -11 -16 5 -13 11 2 21 10 24 17 5 17 -13 15 -29
-4z"/>
<path d="M794 1909 c-4 -7 -3 -9 4 -5 5 3 13 0 15 -6 4 -9 6 -10 6 -1 1 17
-16 25 -25 12z"/>
<path d="M987 1863 c-4 -3 -7 -18 -6 -32 1 -26 1 -25 10 3 9 31 7 41 -4 29z"/>
<path d="M4720 1840 c-6 -12 -3 -20 11 -29 16 -9 18 -15 9 -26 -8 -9 -8 -15 0
-20 6 -3 8 -10 5 -15 -6 -10 22 -7 30 3 3 4 2 5 -2 2 -3 -3 -12 0 -20 6 -9 8
-10 15 -3 24 8 9 8 15 0 20 -5 3 -10 13 -10 21 0 8 5 12 10 9 6 -3 10 0 10 8
0 19 -29 17 -40 -3z"/>
<path d="M1175 1780 c-3 -5 -1 -10 4 -10 6 0 11 5 11 10 0 6 -2 10 -4 10 -3 0
-8 -4 -11 -10z"/>
<path d="M4695 1780 c3 -5 8 -10 11 -10 2 0 4 5 4 10 0 6 -5 10 -11 10 -5 0
-7 -4 -4 -10z"/>
<path d="M4800 1661 c0 -6 5 -13 10 -16 6 -3 10 1 10 9 0 9 -4 16 -10 16 -5 0
-10 -4 -10 -9z"/>
<path d="M1332 1625 c0 -16 2 -22 5 -12 2 9 2 23 0 30 -3 6 -5 -1 -5 -18z"/>
<path d="M4800 1617 c0 -9 -10 -23 -22 -31 -16 -12 -19 -19 -11 -27 8 -8 16
-1 28 25 10 20 15 40 11 43 -3 3 -6 -1 -6 -10z"/>
<path d="M4717 1559 c4 -13 8 -18 11 -10 2 7 -1 18 -6 23 -8 8 -9 4 -5 -13z"/>
<path d="M1320 1549 c0 -11 4 -18 10 -14 5 3 7 12 3 20 -7 21 -13 19 -13 -6z"/>
<path d="M1658 1553 c-6 -21 21 -53 44 -53 7 0 4 6 -5 13 -9 6 -20 23 -25 36
-8 23 -9 24 -14 4z"/>
<path d="M4695 1511 c-3 -5 -1 -12 4 -15 5 -3 11 1 15 9 6 16 -9 21 -19 6z"/>
<path d="M4780 1483 c-20 -41 -20 -49 1 -49 11 0 19 6 19 13 0 8 -7 10 -17 6
-17 -6 -17 -5 -2 13 24 28 31 44 21 44 -5 0 -15 -12 -22 -27z"/>
<path d="M1384 1366 c-3 -9 -10 -13 -15 -10 -5 3 -9 -2 -9 -10 0 -21 13 -20
34 3 11 13 14 21 7 26 -6 3 -14 -1 -17 -9z"/>
<path d="M1721 1254 c0 -11 3 -14 6 -6 3 7 2 16 -1 19 -3 4 -6 -2 -5 -13z"/>
<path d="M4417 1246 c-4 -10 -1 -19 9 -23 21 -8 26 1 11 22 -13 16 -14 16 -20
1z"/>
<path d="M4522 1203 c-2 -32 -6 -60 -9 -63 -2 -3 -18 10 -35 29 -31 35 -51 30
-40 -11 3 -12 -7 -33 -27 -58 -17 -21 -27 -41 -22 -45 5 -3 21 10 35 28 30 39
78 48 97 19 9 -15 10 -15 5 0 -2 9 -2 19 2 23 8 8 10 135 2 135 -3 0 -7 -26
-8 -57z m-38 -61 c2 -4 -5 -9 -17 -9 -17 -2 -19 0 -7 7 18 12 18 12 24 2z"/>
<path d="M1517 1221 c9 -11 23 -17 31 -14 11 5 9 9 -9 19 -34 19 -41 17 -22
-5z"/>
<path d="M4250 1192 c0 -5 7 -9 15 -9 8 0 15 4 15 9 0 4 -7 8 -15 8 -8 0 -15
-4 -15 -8z"/>
<path d="M4310 1181 c0 -23 16 -36 25 -21 3 5 1 10 -5 10 -6 0 -9 4 -5 9 3 5
1 12 -5 16 -5 3 -10 -3 -10 -14z"/>
<path d="M1612 1130 c-53 -12 -49 -19 9 -18 30 0 68 -2 84 -6 24 -5 26 -4 12
5 -9 5 -15 14 -13 18 6 9 -50 10 -92 1z"/>
<path d="M4694 1101 c3 -5 8 -25 10 -45 3 -20 10 -44 16 -54 8 -13 9 -5 8 33
-2 28 -8 56 -15 63 -13 14 -27 16 -19 3z"/>
<path d="M2030 1081 c0 -12 5 -21 10 -21 6 0 10 6 10 14 0 8 -4 18 -10 21 -5
3 -10 -3 -10 -14z"/>
<path d="M1864 1023 c7 -54 8 -55 30 -47 14 5 14 9 4 23 -12 14 -11 14 4 2 10
-7 16 -17 13 -21 -8 -14 10 -20 25 -9 12 8 10 13 -12 32 -16 13 -28 27 -28 32
0 5 25 -15 55 -45 33 -33 55 -48 55 -39 0 19 -116 119 -137 119 -13 0 -15 -9
-9 -47z"/>
<path d="M4485 1061 c-4 -7 0 -8 11 -4 12 4 15 3 10 -5 -4 -7 -2 -12 4 -12 14
0 8 22 -7 27 -6 2 -14 -1 -18 -6z"/>
<path d="M4730 1060 c0 -5 5 -10 11 -10 5 0 7 5 4 10 -3 6 -8 10 -11 10 -2 0
-4 -4 -4 -10z"/>
<path d="M1740 1030 c-8 -16 -8 -20 4 -20 8 0 17 -8 19 -17 4 -14 5 -13 6 4 0
12 -4 25 -9 28 -6 4 -8 11 -5 16 4 5 4 9 1 9 -3 0 -10 -9 -16 -20z"/>
<path d="M4362 1017 c-12 -13 -22 -28 -22 -34 0 -6 -7 -16 -15 -23 -8 -7 -13
-16 -10 -20 3 -5 1 -11 -5 -15 -5 -3 -10 -11 -10 -18 0 -22 35 24 46 61 7 24
16 36 25 34 8 -2 11 0 7 4 -4 4 -3 13 3 21 19 22 4 15 -19 -10z"/>
<path d="M4411 1024 c0 -11 3 -14 6 -6 3 7 2 16 -1 19 -3 4 -6 -2 -5 -13z"/>
<path d="M4776 1020 c7 -28 12 -35 18 -29 2 2 -2 15 -10 29 l-15 25 7 -25z"/>
<path d="M4484 1021 c4 -6 14 -11 22 -11 8 0 14 -8 14 -17 0 -16 -2 -16 -11
-3 -9 12 -9 11 -4 -5 4 -11 7 -28 7 -37 0 -10 4 -18 9 -18 6 0 7 -4 4 -10 -3
-5 -1 -10 5 -10 7 0 9 17 4 53 -8 61 -4 53 -33 62 -16 5 -21 4 -17 -4z"/>
<path d="M1780 1010 c0 -6 7 -10 15 -10 8 0 15 2 15 4 0 2 -7 6 -15 10 -8 3
-15 1 -15 -4z"/>
<path d="M2180 999 c0 -5 5 -7 10 -4 6 3 10 8 10 11 0 2 -4 4 -10 4 -5 0 -10
-5 -10 -11z"/>
<path d="M1795 981 c3 -6 -5 -19 -17 -30 -26 -25 -14 -43 20 -30 27 10 33 69
6 69 -8 0 -13 -4 -9 -9z"/>
<path d="M1900 955 c7 -8 10 -15 6 -15 -4 0 0 -13 8 -28 11 -21 21 -28 38 -26
13 1 28 3 33 3 6 1 3 6 -5 11 -8 5 -16 18 -16 29 -1 11 3 18 8 15 4 -3 5 -11
2 -17 -5 -9 -4 -9 6 0 10 9 10 15 -4 28 -10 10 -16 12 -16 5 0 -7 -7 -9 -16
-6 -8 3 -12 2 -9 -4 3 -6 1 -10 -5 -10 -6 0 -13 7 -16 15 -4 8 -11 15 -16 15
-6 0 -5 -6 2 -15z m50 -47 c0 -12 -6 -9 -26 13 -19 22 -19 22 4 8 12 -8 22
-17 22 -21z"/>
<path d="M2060 950 c0 -5 5 -10 10 -10 6 0 10 5 10 10 0 6 -4 10 -10 10 -5 0
-10 -4 -10 -10z"/>
<path d="M4438 918 c-10 -10 -18 -23 -18 -30 0 -6 7 -3 15 8 12 16 16 17 24 4
7 -9 6 -19 -1 -27 -5 -7 -8 -20 -4 -28 4 -11 1 -15 -11 -13 -18 3 -25 -22 -12
-43 7 -11 9 -11 9 -1 0 8 5 10 13 6 7 -5 6 0 -3 11 -8 10 -10 16 -4 12 6 -3
17 2 26 12 9 10 22 21 29 24 11 5 10 8 -4 17 -12 8 -17 21 -15 37 4 32 -19 38
-44 11z"/>
<path d="M1754 879 c-5 -8 -3 -9 6 -4 7 4 16 2 22 -6 8 -12 9 -12 6 0 -6 20
-24 25 -34 10z"/>
<path d="M4125 870 c-17 -8 -17 -9 7 -7 15 1 24 5 22 9 -3 4 -6 8 -7 7 -1 0
-11 -4 -22 -9z"/>
<path d="M4420 860 c0 -5 5 -10 11 -10 5 0 7 5 4 10 -3 6 -8 10 -11 10 -2 0
-4 -4 -4 -10z"/>
<path d="M4250 838 c0 -9 5 -20 10 -23 13 -8 13 5 0 25 -8 13 -10 13 -10 -2z"/>
<path d="M4505 840 c-3 -5 -4 -10 -1 -10 2 0 12 -3 20 -6 12 -5 15 -2 10 10
-7 18 -20 21 -29 6z"/>
<path d="M1755 830 c3 -5 8 -10 11 -10 2 0 4 5 4 10 0 6 -5 10 -11 10 -5 0 -7
-4 -4 -10z"/>
<path d="M2012 765 c-23 -33 -28 -55 -13 -55 5 0 11 9 14 21 3 12 10 18 16 14
7 -3 11 3 11 15 0 12 5 18 10 15 6 -3 10 0 10 8 0 24 -26 15 -48 -18z"/>
<path d="M4294 780 c4 -14 9 -41 12 -60 8 -48 24 -90 36 -90 7 0 7 4 0 13 -5
6 -11 29 -14 49 -3 29 -1 35 9 26 9 -7 13 -7 13 0 0 6 -9 17 -21 25 -11 8 -22
22 -23 31 -1 8 -6 19 -11 23 -4 4 -5 -3 -1 -17z"/>
<path d="M4520 765 c10 -12 8 -13 -11 -10 -17 4 -20 2 -11 -7 7 -7 12 -19 12
-28 0 -9 16 -31 35 -50 19 -19 35 -40 35 -47 0 -7 4 -13 10 -13 6 0 5 10 -2
25 -6 14 -15 25 -21 25 -5 0 -7 7 -3 15 3 8 2 15 -3 15 -4 0 -6 11 -4 24 6 30
-13 66 -34 66 -12 0 -13 -3 -3 -15z"/>
<path d="M4375 690 c3 -5 8 -10 11 -10 2 0 4 5 4 10 0 6 -5 10 -11 10 -5 0 -7
-4 -4 -10z"/>
<path d="M4781 674 c0 -11 3 -14 6 -6 3 7 2 16 -1 19 -3 4 -6 -2 -5 -13z"/>
<path d="M2071 660 c14 -31 19 -36 19 -24 0 6 -7 19 -16 30 -14 18 -14 18 -3
-6z"/>
<path d="M4370 660 c0 -5 7 -10 15 -10 8 0 15 5 15 10 0 6 -7 10 -15 10 -8 0
-15 -4 -15 -10z"/>
<path d="M2375 650 c-3 -5 3 -10 14 -10 11 0 23 5 26 10 3 6 -3 10 -14 10 -11
0 -23 -4 -26 -10z"/>
<path d="M2774 649 c-3 -6 1 -17 10 -25 9 -8 12 -9 7 -3 -5 6 -7 18 -4 25 6
17 -3 19 -13 3z"/>
<path d="M2810 642 c-13 -14 -12 -15 4 -9 13 5 17 3 13 -6 -3 -7 3 -13 13 -13
14 0 16 4 9 18 -14 25 -22 28 -39 10z"/>
<path d="M2870 635 c0 -5 7 -17 17 -27 10 -11 12 -18 4 -18 -9 0 -9 -5 0 -21
8 -16 8 -24 -2 -33 -9 -8 -10 -8 -5 1 4 7 -3 17 -15 23 -12 7 -19 8 -15 2 3
-6 3 -12 -1 -15 -5 -2 -3 -3 2 -2 6 2 9 -17 8 -44 -1 -39 1 -43 12 -28 7 9 18
17 24 17 7 0 10 4 7 8 -2 4 -1 14 5 22 6 11 9 8 9 -12 0 -14 -6 -29 -12 -31
-8 -4 -7 -6 4 -6 9 -1 19 -9 22 -18 3 -10 2 6 -1 36 -3 30 -12 61 -19 69 -16
15 -19 36 -5 27 5 -3 13 0 17 6 4 7 3 9 -4 5 -6 -3 -20 6 -31 20 -12 15 -21
23 -21 19z"/>
<path d="M2383 614 c0 -16 13 -19 21 -5 3 5 0 11 -7 14 -8 3 -14 -1 -14 -9z"/>
<path d="M2438 623 c7 -3 16 -2 19 1 4 3 -2 6 -13 5 -11 0 -14 -3 -6 -6z"/>
<path d="M2750 610 c0 -5 5 -10 10 -10 6 0 10 5 10 10 0 6 -4 10 -10 10 -5 0
-10 -4 -10 -10z"/>
<path d="M3000 610 c-9 -6 -10 -10 -3 -10 6 0 15 5 18 10 8 12 4 12 -15 0z"/>
<path d="M2070 585 c0 -8 7 -15 15 -15 8 0 15 7 15 15 0 8 -7 15 -15 15 -8 0
-15 -7 -15 -15z"/>
<path d="M2709 573 l-24 -26 27 19 c15 10 28 22 28 27 0 12 -5 8 -31 -20z"/>
<path d="M2220 572 c6 -13 14 -21 18 -18 3 4 -2 14 -12 24 -18 16 -18 16 -6
-6z"/>
<path d="M2625 579 c-4 -6 -13 -8 -21 -5 -12 5 -12 2 -3 -17 18 -33 49 -71 49
-59 0 5 10 8 22 4 14 -3 19 -2 14 6 -4 7 -14 12 -22 12 -8 0 -14 5 -14 11 0 5
-5 7 -11 4 -7 -5 -9 3 -6 24 5 32 3 38 -8 20z"/>
<path d="M2460 560 c-9 -6 -10 -10 -3 -10 6 0 15 5 18 10 8 12 4 12 -15 0z"/>
<path d="M2378 543 c7 -3 16 -2 19 1 4 3 -2 6 -13 5 -11 0 -14 -3 -6 -6z"/>
<path d="M2725 510 c-3 -5 1 -10 9 -10 9 0 16 5 16 10 0 6 -4 10 -9 10 -6 0
-13 -4 -16 -10z"/>
<path d="M3905 510 c-16 -7 -17 -9 -3 -9 9 -1 20 4 23 9 7 11 7 11 -20 0z"/>
<path d="M3836 475 c-4 -12 0 -14 22 -9 41 10 50 24 15 24 -18 0 -33 -6 -37
-15z"/>
<path d="M3898 445 c-6 -14 -19 -25 -29 -25 -9 0 -19 -7 -23 -15 -7 -20 8 -19
39 1 14 9 37 14 54 12 19 -3 32 1 39 13 10 15 8 16 -18 6 -34 -13 -48 -4 -30
18 10 12 10 15 -4 15 -9 0 -22 -11 -28 -25z"/>
<path d="M3080 440 c0 -5 5 -10 10 -10 6 0 10 5 10 10 0 6 -4 10 -10 10 -5 0
-10 -4 -10 -10z"/>
<path d="M3810 434 c0 -8 5 -12 10 -9 6 3 10 10 10 16 0 5 -4 9 -10 9 -5 0
-10 -7 -10 -16z"/>
<path d="M4252 413 c2 -10 11 -19 21 -21 23 -5 21 10 -4 26 -18 12 -20 11 -17
-5z"/>
<path d="M3604 406 c-18 -14 -18 -15 -1 -21 10 -4 24 -1 34 6 9 8 18 13 20 12
1 -2 11 -3 21 -2 11 1 9 4 -8 9 -37 12 -44 11 -66 -4z"/>
<path d="M3060 401 c0 -5 7 -15 17 -22 15 -13 15 -12 4 9 -12 23 -21 28 -21
13z"/>
<path d="M2642 387 c-9 -10 -4 -13 21 -14 20 0 24 1 9 4 -12 2 -20 9 -17 14 9
14 -1 11 -13 -4z"/>
<path d="M3130 390 c0 -5 5 -10 11 -10 5 0 7 5 4 10 -3 6 -8 10 -11 10 -2 0
-4 -4 -4 -10z"/>
<path d="M2670 350 c33 -23 50 -30 50 -22 0 5 -11 14 -25 20 -32 15 -45 15
-25 2z"/>
<path d="M3327 354 c7 -3 9 -13 6 -22 -7 -18 -5 -17 16 11 12 15 11 17 -10 16
-13 0 -19 -3 -12 -5z"/>
<path d="M3798 333 c6 -2 10 -9 7 -14 -4 -5 1 -6 9 -3 24 9 19 24 -6 23 -13 0
-17 -3 -10 -6z"/>
<path d="M2730 320 c0 -5 5 -10 10 -10 6 0 10 5 10 10 0 6 -4 10 -10 10 -5 0
-10 -4 -10 -10z"/>
<path d="M3740 320 c-13 -9 -13 -10 0 -10 8 0 22 5 30 10 13 9 13 10 0 10 -8
0 -22 -5 -30 -10z"/>
<path d="M4231 314 c0 -11 3 -14 6 -6 3 7 2 16 -1 19 -3 4 -6 -2 -5 -13z"/>
<path d="M4380 310 c0 -5 5 -10 11 -10 5 0 7 5 4 10 -3 6 -8 10 -11 10 -2 0
-4 -4 -4 -10z"/>
<path d="M2768 303 c7 -3 16 -2 19 1 4 3 -2 6 -13 5 -11 0 -14 -3 -6 -6z"/>
<path d="M3298 293 c7 -3 16 -2 19 1 4 3 -2 6 -13 5 -11 0 -14 -3 -6 -6z"/>
<path d="M3724 286 c-28 -16 -27 -33 1 -33 14 0 25 3 25 8 0 5 12 9 26 9 14 0
23 4 20 9 -4 5 0 12 6 14 7 3 -3 5 -23 5 -20 -1 -45 -6 -55 -12z"/>
<path d="M4310 281 c0 -10 30 -24 37 -17 3 3 2 9 -2 15 -8 13 -35 15 -35 2z"/>
<path d="M3316 254 c-5 -14 -4 -15 9 -4 17 14 19 20 6 20 -5 0 -12 -7 -15 -16z"/>
<path d="M3781 231 c-13 -10 -17 -18 -10 -17 8 0 22 8 32 18 22 23 9 23 -22
-1z"/>
<path d="M3700 230 c-11 -7 -5 -8 20 -4 43 8 51 14 19 14 -13 0 -31 -5 -39
-10z"/>
<path d="M4150 200 c0 -5 5 -10 11 -10 5 0 7 5 4 10 -3 6 -8 10 -11 10 -2 0
-4 -4 -4 -10z"/>
<path d="M3050 190 c-11 -8 -7 -9 14 -4 20 5 27 4 22 -4 -5 -8 -1 -10 9 -5 13
5 14 7 3 14 -17 11 -30 11 -48 -1z"/>
<path d="M3850 196 c0 -2 8 -10 18 -17 15 -13 16 -12 3 4 -13 16 -21 21 -21
13z"/>
<path d="M3016 145 c-17 -13 -18 -17 -6 -28 8 -6 11 -8 7 -3 -4 5 0 18 10 28
19 22 15 23 -11 3z"/>
<path d="M3161 119 c-18 -6 -32 -12 -30 -13 8 -7 69 7 69 15 0 5 -1 9 -2 8 -2
0 -18 -5 -37 -10z"/>
</g>
</svg>
